<svg xmlns="http://www.w3.org/2000/svg" xmlns:xlink="http://www.w3.org/1999/xlink" width="400" zoomAndPan="magnify" viewBox="0 0 300 74.999997" height="100" preserveAspectRatio="xMidYMid meet" version="1.0"><defs><filter x="0%" y="0%" width="100%" height="100%" id="bce6a66f5f"><feColorMatrix values="0 0 0 0 1 0 0 0 0 1 0 0 0 0 1 0 0 0 1 0" color-interpolation-filters="sRGB"/></filter><g/><clipPath id="5dd79509fb"><path d="M 0 0 L 300 0 L 300 75 L 0 75 Z M 0 0 " clip-rule="nonzero"/></clipPath><radialGradient gradientTransform="matrix(0.998994, 0, 0, 1.001006, 0.323597, 4.603992)" gradientUnits="userSpaceOnUse" r="151.113005" cx="150.17183" id="630b287df9" cy="22.615225" fx="150.17183" fy="22.615225"><stop stop-opacity="1" stop-color="rgb(90.663147%, 66.845703%, 31.97937%)" offset="0"/><stop stop-opacity="1" stop-color="rgb(90.809631%, 67.201233%, 32.420349%)" offset="0.00390625"/><stop stop-opacity="1" stop-color="rgb(90.956116%, 67.556763%, 32.861328%)" offset="0.0078125"/><stop stop-opacity="1" stop-color="rgb(91.104126%, 67.912292%, 33.302307%)" offset="0.0117188"/><stop stop-opacity="1" stop-color="rgb(91.25061%, 68.267822%, 33.744812%)" offset="0.015625"/><stop stop-opacity="1" stop-color="rgb(91.397095%, 68.623352%, 34.185791%)" offset="0.0195312"/><stop stop-opacity="1" stop-color="rgb(91.545105%, 68.977356%, 34.62677%)" offset="0.0234375"/><stop stop-opacity="1" stop-color="rgb(91.691589%, 69.332886%, 35.067749%)" offset="0.0273438"/><stop stop-opacity="1" stop-color="rgb(91.838074%, 69.688416%, 35.508728%)" offset="0.03125"/><stop stop-opacity="1" stop-color="rgb(91.986084%, 70.043945%, 35.951233%)" offset="0.0351562"/><stop stop-opacity="1" stop-color="rgb(92.132568%, 70.399475%, 36.392212%)" offset="0.0390625"/><stop stop-opacity="1" stop-color="rgb(92.280579%, 70.755005%, 36.833191%)" offset="0.0429688"/><stop stop-opacity="1" stop-color="rgb(92.427063%, 71.110535%, 37.27417%)" offset="0.046875"/><stop stop-opacity="1" stop-color="rgb(92.573547%, 71.466064%, 37.715149%)" offset="0.0507812"/><stop stop-opacity="1" stop-color="rgb(92.721558%, 71.820068%, 38.156128%)" offset="0.0546875"/><stop stop-opacity="1" stop-color="rgb(92.868042%, 72.175598%, 38.598633%)" offset="0.0585938"/><stop stop-opacity="1" stop-color="rgb(93.014526%, 72.531128%, 39.039612%)" offset="0.0625"/><stop stop-opacity="1" stop-color="rgb(93.162537%, 72.886658%, 39.480591%)" offset="0.0664062"/><stop stop-opacity="1" stop-color="rgb(93.309021%, 73.242188%, 39.92157%)" offset="0.0703125"/><stop stop-opacity="1" stop-color="rgb(93.455505%, 73.597717%, 40.362549%)" offset="0.0742188"/><stop stop-opacity="1" stop-color="rgb(93.603516%, 73.953247%, 40.803528%)" offset="0.078125"/><stop stop-opacity="1" stop-color="rgb(93.75%, 74.307251%, 41.246033%)" offset="0.0820312"/><stop stop-opacity="1" stop-color="rgb(93.896484%, 74.662781%, 41.687012%)" offset="0.0859375"/><stop stop-opacity="1" stop-color="rgb(94.044495%, 75.018311%, 42.127991%)" offset="0.0898438"/><stop stop-opacity="1" stop-color="rgb(94.190979%, 75.37384%, 42.56897%)" offset="0.09375"/><stop stop-opacity="1" stop-color="rgb(94.338989%, 75.72937%, 43.009949%)" offset="0.0976562"/><stop stop-opacity="1" stop-color="rgb(94.485474%, 76.0849%, 43.452454%)" offset="0.101562"/><stop stop-opacity="1" stop-color="rgb(94.631958%, 76.44043%, 43.893433%)" offset="0.105469"/><stop stop-opacity="1" stop-color="rgb(94.779968%, 76.794434%, 44.334412%)" offset="0.109375"/><stop stop-opacity="1" stop-color="rgb(94.926453%, 77.149963%, 44.775391%)" offset="0.113281"/><stop stop-opacity="1" stop-color="rgb(95.072937%, 77.505493%, 45.21637%)" offset="0.117188"/><stop stop-opacity="1" stop-color="rgb(95.220947%, 77.861023%, 45.657349%)" offset="0.121094"/><stop stop-opacity="1" stop-color="rgb(95.367432%, 78.216553%, 46.099854%)" offset="0.125"/><stop stop-opacity="1" stop-color="rgb(95.513916%, 78.572083%, 46.540833%)" offset="0.128906"/><stop stop-opacity="1" stop-color="rgb(95.661926%, 78.927612%, 46.981812%)" offset="0.132812"/><stop stop-opacity="1" stop-color="rgb(95.808411%, 79.281616%, 47.422791%)" offset="0.136719"/><stop stop-opacity="1" stop-color="rgb(95.954895%, 79.637146%, 47.86377%)" offset="0.140625"/><stop stop-opacity="1" stop-color="rgb(96.102905%, 79.992676%, 48.304749%)" offset="0.144531"/><stop stop-opacity="1" stop-color="rgb(96.24939%, 80.348206%, 48.747253%)" offset="0.148438"/><stop stop-opacity="1" stop-color="rgb(96.3974%, 80.703735%, 49.188232%)" offset="0.152344"/><stop stop-opacity="1" stop-color="rgb(96.543884%, 81.059265%, 49.629211%)" offset="0.15625"/><stop stop-opacity="1" stop-color="rgb(96.690369%, 81.414795%, 50.07019%)" offset="0.160156"/><stop stop-opacity="1" stop-color="rgb(96.838379%, 81.768799%, 50.511169%)" offset="0.164062"/><stop stop-opacity="1" stop-color="rgb(96.984863%, 82.124329%, 50.953674%)" offset="0.167969"/><stop stop-opacity="1" stop-color="rgb(97.131348%, 82.479858%, 51.394653%)" offset="0.171875"/><stop stop-opacity="1" stop-color="rgb(97.279358%, 82.835388%, 51.835632%)" offset="0.175781"/><stop stop-opacity="1" stop-color="rgb(97.425842%, 83.190918%, 52.276611%)" offset="0.179688"/><stop stop-opacity="1" stop-color="rgb(97.572327%, 83.546448%, 52.71759%)" offset="0.183594"/><stop stop-opacity="1" stop-color="rgb(97.720337%, 83.901978%, 53.158569%)" offset="0.1875"/><stop stop-opacity="1" stop-color="rgb(97.866821%, 84.255981%, 53.601074%)" offset="0.191406"/><stop stop-opacity="1" stop-color="rgb(98.013306%, 84.611511%, 54.042053%)" offset="0.195312"/><stop stop-opacity="1" stop-color="rgb(98.161316%, 84.967041%, 54.483032%)" offset="0.199219"/><stop stop-opacity="1" stop-color="rgb(98.3078%, 85.322571%, 54.924011%)" offset="0.203125"/><stop stop-opacity="1" stop-color="rgb(98.455811%, 85.678101%, 55.36499%)" offset="0.207031"/><stop stop-opacity="1" stop-color="rgb(98.602295%, 86.03363%, 55.807495%)" offset="0.210938"/><stop stop-opacity="1" stop-color="rgb(98.748779%, 86.38916%, 56.248474%)" offset="0.214844"/><stop stop-opacity="1" stop-color="rgb(98.89679%, 86.743164%, 56.689453%)" offset="0.21875"/><stop stop-opacity="1" stop-color="rgb(99.043274%, 87.098694%, 57.130432%)" offset="0.222656"/><stop stop-opacity="1" stop-color="rgb(99.189758%, 87.454224%, 57.571411%)" offset="0.226562"/><stop stop-opacity="1" stop-color="rgb(99.337769%, 87.809753%, 58.01239%)" offset="0.230469"/><stop stop-opacity="1" stop-color="rgb(99.484253%, 88.165283%, 58.454895%)" offset="0.234375"/><stop stop-opacity="1" stop-color="rgb(99.630737%, 88.520813%, 58.895874%)" offset="0.238281"/><stop stop-opacity="1" stop-color="rgb(99.778748%, 88.876343%, 59.336853%)" offset="0.242188"/><stop stop-opacity="1" stop-color="rgb(99.925232%, 89.230347%, 59.777832%)" offset="0.246094"/><stop stop-opacity="1" stop-color="rgb(99.650574%, 88.986206%, 59.613037%)" offset="0.25"/><stop stop-opacity="1" stop-color="rgb(98.951721%, 88.140869%, 58.840942%)" offset="0.253906"/><stop stop-opacity="1" stop-color="rgb(98.252869%, 87.295532%, 58.068848%)" offset="0.257812"/><stop stop-opacity="1" stop-color="rgb(97.554016%, 86.448669%, 57.296753%)" offset="0.261719"/><stop stop-opacity="1" stop-color="rgb(96.855164%, 85.603333%, 56.524658%)" offset="0.265625"/><stop stop-opacity="1" stop-color="rgb(96.156311%, 84.757996%, 55.752563%)" offset="0.269531"/><stop stop-opacity="1" stop-color="rgb(95.458984%, 83.912659%, 54.980469%)" offset="0.273438"/><stop stop-opacity="1" stop-color="rgb(94.760132%, 83.067322%, 54.208374%)" offset="0.277344"/><stop stop-opacity="1" stop-color="rgb(94.061279%, 82.221985%, 53.436279%)" offset="0.28125"/><stop stop-opacity="1" stop-color="rgb(93.362427%, 81.375122%, 52.664185%)" offset="0.285156"/><stop stop-opacity="1" stop-color="rgb(92.663574%, 80.529785%, 51.893616%)" offset="0.289062"/><stop stop-opacity="1" stop-color="rgb(91.964722%, 79.684448%, 51.121521%)" offset="0.292969"/><stop stop-opacity="1" stop-color="rgb(91.267395%, 78.839111%, 50.349426%)" offset="0.296875"/><stop stop-opacity="1" stop-color="rgb(90.568542%, 77.993774%, 49.577332%)" offset="0.300781"/><stop stop-opacity="1" stop-color="rgb(89.86969%, 77.146912%, 48.805237%)" offset="0.304688"/><stop stop-opacity="1" stop-color="rgb(89.170837%, 76.301575%, 48.033142%)" offset="0.308594"/><stop stop-opacity="1" stop-color="rgb(88.471985%, 75.456238%, 47.261047%)" offset="0.3125"/><stop stop-opacity="1" stop-color="rgb(87.773132%, 74.610901%, 46.488953%)" offset="0.316406"/><stop stop-opacity="1" stop-color="rgb(87.075806%, 73.765564%, 45.716858%)" offset="0.320312"/><stop stop-opacity="1" stop-color="rgb(86.376953%, 72.918701%, 44.944763%)" offset="0.324219"/><stop stop-opacity="1" stop-color="rgb(85.678101%, 72.073364%, 44.172668%)" offset="0.328125"/><stop stop-opacity="1" stop-color="rgb(84.979248%, 71.228027%, 43.400574%)" offset="0.332031"/><stop stop-opacity="1" stop-color="rgb(84.280396%, 70.38269%, 42.628479%)" offset="0.335938"/><stop stop-opacity="1" stop-color="rgb(83.581543%, 69.537354%, 41.856384%)" offset="0.339844"/><stop stop-opacity="1" stop-color="rgb(82.884216%, 68.692017%, 41.08429%)" offset="0.34375"/><stop stop-opacity="1" stop-color="rgb(82.185364%, 67.845154%, 40.312195%)" offset="0.347656"/><stop stop-opacity="1" stop-color="rgb(81.486511%, 66.999817%, 39.5401%)" offset="0.351562"/><stop stop-opacity="1" stop-color="rgb(80.787659%, 66.15448%, 38.768005%)" offset="0.355469"/><stop stop-opacity="1" stop-color="rgb(80.088806%, 65.309143%, 37.995911%)" offset="0.359375"/><stop stop-opacity="1" stop-color="rgb(79.389954%, 64.463806%, 37.223816%)" offset="0.363281"/><stop stop-opacity="1" stop-color="rgb(78.692627%, 63.616943%, 36.451721%)" offset="0.367188"/><stop stop-opacity="1" stop-color="rgb(77.993774%, 62.771606%, 35.679626%)" offset="0.371094"/><stop stop-opacity="1" stop-color="rgb(77.294922%, 61.92627%, 34.907532%)" offset="0.375"/><stop stop-opacity="1" stop-color="rgb(76.596069%, 61.080933%, 34.135437%)" offset="0.378906"/><stop stop-opacity="1" stop-color="rgb(75.897217%, 60.235596%, 33.364868%)" offset="0.382812"/><stop stop-opacity="1" stop-color="rgb(75.198364%, 59.388733%, 32.592773%)" offset="0.386719"/><stop stop-opacity="1" stop-color="rgb(74.501038%, 58.543396%, 31.820679%)" offset="0.390625"/><stop stop-opacity="1" stop-color="rgb(73.802185%, 57.698059%, 31.048584%)" offset="0.394531"/><stop stop-opacity="1" stop-color="rgb(73.103333%, 56.852722%, 30.276489%)" offset="0.398438"/><stop stop-opacity="1" stop-color="rgb(72.40448%, 56.007385%, 29.504395%)" offset="0.402344"/><stop stop-opacity="1" stop-color="rgb(71.705627%, 55.160522%, 28.7323%)" offset="0.40625"/><stop stop-opacity="1" stop-color="rgb(71.006775%, 54.315186%, 27.960205%)" offset="0.410156"/><stop stop-opacity="1" stop-color="rgb(70.309448%, 53.469849%, 27.18811%)" offset="0.414062"/><stop stop-opacity="1" stop-color="rgb(69.610596%, 52.624512%, 26.416016%)" offset="0.417969"/><stop stop-opacity="1" stop-color="rgb(68.911743%, 51.779175%, 25.643921%)" offset="0.421875"/><stop stop-opacity="1" stop-color="rgb(68.212891%, 50.933838%, 24.871826%)" offset="0.425781"/><stop stop-opacity="1" stop-color="rgb(67.514038%, 50.086975%, 24.099731%)" offset="0.429688"/><stop stop-opacity="1" stop-color="rgb(66.815186%, 49.241638%, 23.327637%)" offset="0.433594"/><stop stop-opacity="1" stop-color="rgb(66.117859%, 48.396301%, 22.555542%)" offset="0.4375"/><stop stop-opacity="1" stop-color="rgb(65.419006%, 47.550964%, 21.783447%)" offset="0.441406"/><stop stop-opacity="1" stop-color="rgb(64.720154%, 46.705627%, 21.011353%)" offset="0.445312"/><stop stop-opacity="1" stop-color="rgb(64.021301%, 45.858765%, 20.239258%)" offset="0.449219"/><stop stop-opacity="1" stop-color="rgb(63.322449%, 45.013428%, 19.467163%)" offset="0.453125"/><stop stop-opacity="1" stop-color="rgb(62.623596%, 44.168091%, 18.695068%)" offset="0.457031"/><stop stop-opacity="1" stop-color="rgb(61.92627%, 43.322754%, 17.922974%)" offset="0.460938"/><stop stop-opacity="1" stop-color="rgb(61.227417%, 42.477417%, 17.150879%)" offset="0.464844"/><stop stop-opacity="1" stop-color="rgb(60.528564%, 41.630554%, 16.378784%)" offset="0.46875"/><stop stop-opacity="1" stop-color="rgb(59.829712%, 40.785217%, 15.606689%)" offset="0.472656"/><stop stop-opacity="1" stop-color="rgb(59.130859%, 39.93988%, 14.836121%)" offset="0.476562"/><stop stop-opacity="1" stop-color="rgb(58.433533%, 39.094543%, 14.064026%)" offset="0.480469"/><stop stop-opacity="1" stop-color="rgb(57.73468%, 38.249207%, 13.291931%)" offset="0.484375"/><stop stop-opacity="1" stop-color="rgb(57.035828%, 37.40387%, 12.519836%)" offset="0.488281"/><stop stop-opacity="1" stop-color="rgb(56.336975%, 36.557007%, 11.747742%)" offset="0.492188"/><stop stop-opacity="1" stop-color="rgb(55.638123%, 35.71167%, 10.975647%)" offset="0.496094"/><stop stop-opacity="1" stop-color="rgb(55.56488%, 35.533142%, 10.754395%)" offset="0.5"/><stop stop-opacity="1" stop-color="rgb(56.115723%, 36.024475%, 11.08551%)" offset="0.503906"/><stop stop-opacity="1" stop-color="rgb(56.668091%, 36.514282%, 11.4151%)" offset="0.507812"/><stop stop-opacity="1" stop-color="rgb(57.218933%, 37.004089%, 11.746216%)" offset="0.511719"/><stop stop-opacity="1" stop-color="rgb(57.771301%, 37.495422%, 12.077332%)" offset="0.515625"/><stop stop-opacity="1" stop-color="rgb(58.322144%, 37.985229%, 12.408447%)" offset="0.519531"/><stop stop-opacity="1" stop-color="rgb(58.874512%, 38.475037%, 12.738037%)" offset="0.523438"/><stop stop-opacity="1" stop-color="rgb(59.425354%, 38.96637%, 13.069153%)" offset="0.527344"/><stop stop-opacity="1" stop-color="rgb(59.977722%, 39.456177%, 13.400269%)" offset="0.53125"/><stop stop-opacity="1" stop-color="rgb(60.528564%, 39.945984%, 13.731384%)" offset="0.535156"/><stop stop-opacity="1" stop-color="rgb(61.080933%, 40.437317%, 14.0625%)" offset="0.539062"/><stop stop-opacity="1" stop-color="rgb(61.631775%, 40.927124%, 14.39209%)" offset="0.542969"/><stop stop-opacity="1" stop-color="rgb(62.182617%, 41.416931%, 14.723206%)" offset="0.546875"/><stop stop-opacity="1" stop-color="rgb(62.734985%, 41.908264%, 15.054321%)" offset="0.550781"/><stop stop-opacity="1" stop-color="rgb(63.285828%, 42.398071%, 15.385437%)" offset="0.554688"/><stop stop-opacity="1" stop-color="rgb(63.838196%, 42.887878%, 15.715027%)" offset="0.558594"/><stop stop-opacity="1" stop-color="rgb(64.389038%, 43.379211%, 16.046143%)" offset="0.5625"/><stop stop-opacity="1" stop-color="rgb(64.941406%, 43.869019%, 16.377258%)" offset="0.566406"/><stop stop-opacity="1" stop-color="rgb(65.492249%, 44.358826%, 16.708374%)" offset="0.570312"/><stop stop-opacity="1" stop-color="rgb(66.044617%, 44.850159%, 17.03949%)" offset="0.574219"/><stop stop-opacity="1" stop-color="rgb(66.595459%, 45.339966%, 17.36908%)" offset="0.578125"/><stop stop-opacity="1" stop-color="rgb(67.147827%, 45.829773%, 17.700195%)" offset="0.582031"/><stop stop-opacity="1" stop-color="rgb(67.698669%, 46.321106%, 18.031311%)" offset="0.585938"/><stop stop-opacity="1" stop-color="rgb(68.251038%, 46.810913%, 18.362427%)" offset="0.589844"/><stop stop-opacity="1" stop-color="rgb(68.80188%, 47.30072%, 18.693542%)" offset="0.59375"/><stop stop-opacity="1" stop-color="rgb(69.354248%, 47.792053%, 19.023132%)" offset="0.597656"/><stop stop-opacity="1" stop-color="rgb(69.90509%, 48.28186%, 19.354248%)" offset="0.601562"/><stop stop-opacity="1" stop-color="rgb(70.457458%, 48.771667%, 19.685364%)" offset="0.605469"/><stop stop-opacity="1" stop-color="rgb(71.008301%, 49.263%, 20.016479%)" offset="0.609375"/><stop stop-opacity="1" stop-color="rgb(71.560669%, 49.752808%, 20.346069%)" offset="0.613281"/><stop stop-opacity="1" stop-color="rgb(72.111511%, 50.242615%, 20.677185%)" offset="0.617188"/><stop stop-opacity="1" stop-color="rgb(72.662354%, 50.733948%, 21.008301%)" offset="0.621094"/><stop stop-opacity="1" stop-color="rgb(73.214722%, 51.223755%, 21.339417%)" offset="0.625"/><stop stop-opacity="1" stop-color="rgb(73.765564%, 51.713562%, 21.670532%)" offset="0.628906"/><stop stop-opacity="1" stop-color="rgb(74.317932%, 52.204895%, 22.000122%)" offset="0.632812"/><stop stop-opacity="1" stop-color="rgb(74.868774%, 52.694702%, 22.331238%)" offset="0.636719"/><stop stop-opacity="1" stop-color="rgb(75.421143%, 53.184509%, 22.662354%)" offset="0.640625"/><stop stop-opacity="1" stop-color="rgb(75.971985%, 53.675842%, 22.993469%)" offset="0.644531"/><stop stop-opacity="1" stop-color="rgb(76.524353%, 54.165649%, 23.323059%)" offset="0.648438"/><stop stop-opacity="1" stop-color="rgb(77.075195%, 54.655457%, 23.654175%)" offset="0.652344"/><stop stop-opacity="1" stop-color="rgb(77.627563%, 55.14679%, 23.985291%)" offset="0.65625"/><stop stop-opacity="1" stop-color="rgb(78.178406%, 55.636597%, 24.316406%)" offset="0.660156"/><stop stop-opacity="1" stop-color="rgb(78.730774%, 56.126404%, 24.647522%)" offset="0.664062"/><stop stop-opacity="1" stop-color="rgb(79.281616%, 56.617737%, 24.977112%)" offset="0.667969"/><stop stop-opacity="1" stop-color="rgb(79.833984%, 57.107544%, 25.308228%)" offset="0.671875"/><stop stop-opacity="1" stop-color="rgb(80.384827%, 57.597351%, 25.639343%)" offset="0.675781"/><stop stop-opacity="1" stop-color="rgb(80.937195%, 58.088684%, 25.970459%)" offset="0.679688"/><stop stop-opacity="1" stop-color="rgb(81.488037%, 58.578491%, 26.300049%)" offset="0.683594"/><stop stop-opacity="1" stop-color="rgb(82.038879%, 59.068298%, 26.631165%)" offset="0.6875"/><stop stop-opacity="1" stop-color="rgb(82.591248%, 59.559631%, 26.96228%)" offset="0.691406"/><stop stop-opacity="1" stop-color="rgb(83.14209%, 60.049438%, 27.293396%)" offset="0.695312"/><stop stop-opacity="1" stop-color="rgb(83.694458%, 60.539246%, 27.624512%)" offset="0.699219"/><stop stop-opacity="1" stop-color="rgb(84.2453%, 61.030579%, 27.954102%)" offset="0.703125"/><stop stop-opacity="1" stop-color="rgb(84.797668%, 61.520386%, 28.285217%)" offset="0.707031"/><stop stop-opacity="1" stop-color="rgb(85.348511%, 62.010193%, 28.616333%)" offset="0.710938"/><stop stop-opacity="1" stop-color="rgb(85.900879%, 62.501526%, 28.947449%)" offset="0.714844"/><stop stop-opacity="1" stop-color="rgb(86.451721%, 62.991333%, 29.277039%)" offset="0.71875"/><stop stop-opacity="1" stop-color="rgb(87.004089%, 63.48114%, 29.608154%)" offset="0.722656"/><stop stop-opacity="1" stop-color="rgb(87.554932%, 63.972473%, 29.93927%)" offset="0.726562"/><stop stop-opacity="1" stop-color="rgb(88.1073%, 64.46228%, 30.270386%)" offset="0.730469"/><stop stop-opacity="1" stop-color="rgb(88.658142%, 64.952087%, 30.601501%)" offset="0.734375"/><stop stop-opacity="1" stop-color="rgb(89.21051%, 65.44342%, 30.931091%)" offset="0.738281"/><stop stop-opacity="1" stop-color="rgb(89.761353%, 65.933228%, 31.262207%)" offset="0.742188"/><stop stop-opacity="1" stop-color="rgb(90.313721%, 66.423035%, 31.593323%)" offset="0.746094"/><stop stop-opacity="1" stop-color="rgb(90.408325%, 66.490173%, 31.660461%)" offset="0.75"/><stop stop-opacity="1" stop-color="rgb(90.046692%, 66.134644%, 31.465149%)" offset="0.753906"/><stop stop-opacity="1" stop-color="rgb(89.685059%, 65.779114%, 31.269836%)" offset="0.757812"/><stop stop-opacity="1" stop-color="rgb(89.323425%, 65.42511%, 31.072998%)" offset="0.761719"/><stop stop-opacity="1" stop-color="rgb(88.961792%, 65.06958%, 30.877686%)" offset="0.765625"/><stop stop-opacity="1" stop-color="rgb(88.600159%, 64.71405%, 30.680847%)" offset="0.769531"/><stop stop-opacity="1" stop-color="rgb(88.238525%, 64.358521%, 30.485535%)" offset="0.773438"/><stop stop-opacity="1" stop-color="rgb(87.876892%, 64.002991%, 30.288696%)" offset="0.777344"/><stop stop-opacity="1" stop-color="rgb(87.515259%, 63.647461%, 30.093384%)" offset="0.78125"/><stop stop-opacity="1" stop-color="rgb(87.153625%, 63.291931%, 29.898071%)" offset="0.785156"/><stop stop-opacity="1" stop-color="rgb(86.791992%, 62.936401%, 29.701233%)" offset="0.789062"/><stop stop-opacity="1" stop-color="rgb(86.430359%, 62.580872%, 29.50592%)" offset="0.792969"/><stop stop-opacity="1" stop-color="rgb(86.068726%, 62.225342%, 29.309082%)" offset="0.796875"/><stop stop-opacity="1" stop-color="rgb(85.707092%, 61.869812%, 29.11377%)" offset="0.800781"/><stop stop-opacity="1" stop-color="rgb(85.345459%, 61.514282%, 28.918457%)" offset="0.804688"/><stop stop-opacity="1" stop-color="rgb(84.983826%, 61.158752%, 28.721619%)" offset="0.808594"/><stop stop-opacity="1" stop-color="rgb(84.622192%, 60.803223%, 28.526306%)" offset="0.8125"/><stop stop-opacity="1" stop-color="rgb(84.260559%, 60.447693%, 28.329468%)" offset="0.816406"/><stop stop-opacity="1" stop-color="rgb(83.898926%, 60.092163%, 28.134155%)" offset="0.820312"/><stop stop-opacity="1" stop-color="rgb(83.537292%, 59.736633%, 27.938843%)" offset="0.824219"/><stop stop-opacity="1" stop-color="rgb(83.177185%, 59.381104%, 27.742004%)" offset="0.828125"/><stop stop-opacity="1" stop-color="rgb(82.815552%, 59.025574%, 27.546692%)" offset="0.832031"/><stop stop-opacity="1" stop-color="rgb(82.453918%, 58.670044%, 27.349854%)" offset="0.835938"/><stop stop-opacity="1" stop-color="rgb(82.092285%, 58.314514%, 27.154541%)" offset="0.839844"/><stop stop-opacity="1" stop-color="rgb(81.730652%, 57.958984%, 26.957703%)" offset="0.84375"/><stop stop-opacity="1" stop-color="rgb(81.369019%, 57.603455%, 26.76239%)" offset="0.847656"/><stop stop-opacity="1" stop-color="rgb(81.007385%, 57.247925%, 26.567078%)" offset="0.851562"/><stop stop-opacity="1" stop-color="rgb(80.645752%, 56.892395%, 26.370239%)" offset="0.855469"/><stop stop-opacity="1" stop-color="rgb(80.284119%, 56.538391%, 26.174927%)" offset="0.859375"/><stop stop-opacity="1" stop-color="rgb(79.922485%, 56.182861%, 25.978088%)" offset="0.863281"/><stop stop-opacity="1" stop-color="rgb(79.560852%, 55.827332%, 25.782776%)" offset="0.867188"/><stop stop-opacity="1" stop-color="rgb(79.199219%, 55.471802%, 25.587463%)" offset="0.871094"/><stop stop-opacity="1" stop-color="rgb(78.837585%, 55.116272%, 25.390625%)" offset="0.875"/><stop stop-opacity="1" stop-color="rgb(78.475952%, 54.760742%, 25.195312%)" offset="0.878906"/><stop stop-opacity="1" stop-color="rgb(78.114319%, 54.405212%, 24.998474%)" offset="0.882812"/><stop stop-opacity="1" stop-color="rgb(77.752686%, 54.049683%, 24.803162%)" offset="0.886719"/><stop stop-opacity="1" stop-color="rgb(77.391052%, 53.694153%, 24.607849%)" offset="0.890625"/><stop stop-opacity="1" stop-color="rgb(77.029419%, 53.338623%, 24.411011%)" offset="0.894531"/><stop stop-opacity="1" stop-color="rgb(76.667786%, 52.983093%, 24.215698%)" offset="0.898438"/><stop stop-opacity="1" stop-color="rgb(76.306152%, 52.627563%, 24.01886%)" offset="0.902344"/><stop stop-opacity="1" stop-color="rgb(75.944519%, 52.272034%, 23.823547%)" offset="0.90625"/><stop stop-opacity="1" stop-color="rgb(75.584412%, 51.916504%, 23.628235%)" offset="0.910156"/><stop stop-opacity="1" stop-color="rgb(75.222778%, 51.560974%, 23.431396%)" offset="0.914062"/><stop stop-opacity="1" stop-color="rgb(74.861145%, 51.205444%, 23.236084%)" offset="0.917969"/><stop stop-opacity="1" stop-color="rgb(74.499512%, 50.849915%, 23.039246%)" offset="0.921875"/><stop stop-opacity="1" stop-color="rgb(74.137878%, 50.494385%, 22.843933%)" offset="0.925781"/><stop stop-opacity="1" stop-color="rgb(73.776245%, 50.138855%, 22.647095%)" offset="0.929688"/><stop stop-opacity="1" stop-color="rgb(73.414612%, 49.783325%, 22.451782%)" offset="0.933594"/><stop stop-opacity="1" stop-color="rgb(73.052979%, 49.427795%, 22.25647%)" offset="0.9375"/><stop stop-opacity="1" stop-color="rgb(72.691345%, 49.072266%, 22.059631%)" offset="0.941406"/><stop stop-opacity="1" stop-color="rgb(72.329712%, 48.716736%, 21.864319%)" offset="0.945312"/><stop stop-opacity="1" stop-color="rgb(71.968079%, 48.361206%, 21.66748%)" offset="0.949219"/><stop stop-opacity="1" stop-color="rgb(71.606445%, 48.005676%, 21.472168%)" offset="0.953125"/><stop stop-opacity="1" stop-color="rgb(71.244812%, 47.651672%, 21.276855%)" offset="0.957031"/><stop stop-opacity="1" stop-color="rgb(70.883179%, 47.296143%, 21.080017%)" offset="0.960938"/><stop stop-opacity="1" stop-color="rgb(70.521545%, 46.940613%, 20.884705%)" offset="0.964844"/><stop stop-opacity="1" stop-color="rgb(70.159912%, 46.585083%, 20.687866%)" offset="0.96875"/><stop stop-opacity="1" stop-color="rgb(69.798279%, 46.229553%, 20.492554%)" offset="0.972656"/><stop stop-opacity="1" stop-color="rgb(69.436646%, 45.874023%, 20.297241%)" offset="0.976562"/><stop stop-opacity="1" stop-color="rgb(69.075012%, 45.518494%, 20.100403%)" offset="0.980469"/><stop stop-opacity="1" stop-color="rgb(68.713379%, 45.162964%, 19.90509%)" offset="0.984375"/><stop stop-opacity="1" stop-color="rgb(68.351746%, 44.807434%, 19.708252%)" offset="0.988281"/><stop stop-opacity="1" stop-color="rgb(67.990112%, 44.451904%, 19.512939%)" offset="0.992188"/><stop stop-opacity="1" stop-color="rgb(67.630005%, 44.096375%, 19.317627%)" offset="0.996094"/><stop stop-opacity="1" stop-color="rgb(67.449951%, 43.919373%, 19.219971%)" offset="1"/></radialGradient><clipPath id="7519f24d5c"><rect x="0" width="300" y="0" height="75"/></clipPath><clipPath id="52b5aeb4a9"><rect x="0" width="300" y="0" height="75"/></clipPath><clipPath id="f4562dfeca"><rect x="0" width="300" y="0" height="75"/></clipPath><mask id="fd0f8a95c0"><g filter="url(#bce6a66f5f)"><g transform="matrix(1, 0, 0, 1, 0, -0.000000000000001893)"><g clip-path="url(#f4562dfeca)"><g transform="matrix(1, 0, 0, 1, 0, -0.000000000000001893)"><g clip-path="url(#52b5aeb4a9)"><g fill="#000000" fill-opacity="1"><g transform="translate(0.000006, 34.934343)"><g><path d="M 1.328125 -23.328125 L 5 -23.328125 L 5 -3.328125 L 11.03125 -3.328125 L 11.03125 0 L 1.328125 0 Z M 1.328125 -23.328125 "/></g></g></g><g fill="#000000" fill-opacity="1"><g transform="translate(11.362648, 34.934343)"><g><path d="M 5 -13.5 L 10.03125 -13.5 L 10.03125 -10.171875 L 5 -10.171875 L 5 -3.328125 L 11.328125 -3.328125 L 11.328125 0 L 1.328125 0 L 1.328125 -23.328125 L 11.328125 -23.328125 L 11.328125 -20 L 5 -20 Z M 5 -13.5 "/></g></g></g><g fill="#000000" fill-opacity="1"><g transform="translate(23.624967, 34.934343)"><g><path d="M 4.703125 -5.359375 C 4.703125 -4.515625 4.875 -3.921875 5.21875 -3.578125 C 5.5625 -3.234375 6.019531 -3.0625 6.59375 -3.0625 C 7.175781 -3.0625 7.640625 -3.234375 7.984375 -3.578125 C 8.328125 -3.921875 8.5 -4.515625 8.5 -5.359375 L 8.5 -17.96875 C 8.5 -18.8125 8.328125 -19.40625 7.984375 -19.75 C 7.640625 -20.09375 7.175781 -20.265625 6.59375 -20.265625 C 6.019531 -20.265625 5.5625 -20.09375 5.21875 -19.75 C 4.875 -19.40625 4.703125 -18.8125 4.703125 -17.96875 Z M 1.03125 -17.734375 C 1.03125 -19.617188 1.507812 -21.066406 2.46875 -22.078125 C 3.425781 -23.085938 4.800781 -23.59375 6.59375 -23.59375 C 8.394531 -23.59375 9.773438 -23.085938 10.734375 -22.078125 C 11.691406 -21.066406 12.171875 -19.617188 12.171875 -17.734375 L 12.171875 -5.59375 C 12.171875 -3.707031 11.691406 -2.257812 10.734375 -1.25 C 9.773438 -0.238281 8.394531 0.265625 6.59375 0.265625 C 4.800781 0.265625 3.425781 -0.238281 2.46875 -1.25 C 1.507812 -2.257812 1.03125 -3.707031 1.03125 -5.59375 Z M 1.03125 -17.734375 "/></g></g></g><g fill="#000000" fill-opacity="1"><g transform="translate(36.820295, 34.934343)"><g><path d="M 4.59375 -16.890625 L 4.59375 0 L 1.296875 0 L 1.296875 -23.328125 L 5.90625 -23.328125 L 9.671875 -9.359375 L 9.671875 -23.328125 L 12.9375 -23.328125 L 12.9375 0 L 9.171875 0 Z M 4.59375 -16.890625 "/></g></g></g><g fill="#000000" fill-opacity="1"><g transform="translate(51.048586, 34.934343)"><g><path d="M 13.203125 0 L 9.5 0 L 8.859375 -4.234375 L 4.359375 -4.234375 L 3.734375 0 L 0.359375 0 L 4.09375 -23.328125 L 9.46875 -23.328125 Z M 4.828125 -7.40625 L 8.359375 -7.40625 L 6.59375 -19.203125 Z M 4.828125 -7.40625 "/></g></g></g><g fill="#000000" fill-opacity="1"><g transform="translate(64.610443, 34.934343)"><g><path d="M 9 0 C 8.957031 -0.15625 8.910156 -0.300781 8.859375 -0.4375 C 8.816406 -0.570312 8.78125 -0.738281 8.75 -0.9375 C 8.71875 -1.132812 8.695312 -1.390625 8.6875 -1.703125 C 8.675781 -2.015625 8.671875 -2.398438 8.671875 -2.859375 L 8.671875 -6.53125 C 8.671875 -7.625 8.476562 -8.390625 8.09375 -8.828125 C 7.71875 -9.273438 7.109375 -9.5 6.265625 -9.5 L 5 -9.5 L 5 0 L 1.328125 0 L 1.328125 -23.328125 L 6.859375 -23.328125 C 8.773438 -23.328125 10.160156 -22.878906 11.015625 -21.984375 C 11.867188 -21.097656 12.296875 -19.757812 12.296875 -17.96875 L 12.296875 -16.125 C 12.296875 -13.726562 11.492188 -12.148438 9.890625 -11.390625 C 10.828125 -11.015625 11.46875 -10.398438 11.8125 -9.546875 C 12.15625 -8.691406 12.328125 -7.65625 12.328125 -6.4375 L 12.328125 -2.828125 C 12.328125 -2.253906 12.347656 -1.75 12.390625 -1.3125 C 12.441406 -0.882812 12.554688 -0.445312 12.734375 0 Z M 5 -20 L 5 -12.828125 L 6.4375 -12.828125 C 7.125 -12.828125 7.660156 -13.003906 8.046875 -13.359375 C 8.429688 -13.710938 8.625 -14.359375 8.625 -15.296875 L 8.625 -17.59375 C 8.625 -18.4375 8.472656 -19.046875 8.171875 -19.421875 C 7.878906 -19.804688 7.410156 -20 6.765625 -20 Z M 5 -20 "/></g></g></g><g fill="#000000" fill-opacity="1"><g transform="translate(78.005694, 34.934343)"><g><path d="M 1.328125 -23.328125 L 7.125 -23.328125 C 8.96875 -23.328125 10.335938 -22.835938 11.234375 -21.859375 C 12.140625 -20.878906 12.59375 -19.445312 12.59375 -17.5625 L 12.59375 -5.765625 C 12.59375 -3.878906 12.140625 -2.445312 11.234375 -1.46875 C 10.335938 -0.488281 8.96875 0 7.125 0 L 1.328125 0 Z M 5 -20 L 5 -3.328125 L 7.0625 -3.328125 C 7.644531 -3.328125 8.101562 -3.492188 8.4375 -3.828125 C 8.769531 -4.160156 8.9375 -4.75 8.9375 -5.59375 L 8.9375 -17.734375 C 8.9375 -18.578125 8.769531 -19.164062 8.4375 -19.5 C 8.101562 -19.832031 7.644531 -20 7.0625 -20 Z M 5 -20 "/></g></g></g><g fill="#000000" fill-opacity="1"><g transform="translate(91.600883, 34.934343)"><g><path d="M 4.703125 -5.359375 C 4.703125 -4.515625 4.875 -3.921875 5.21875 -3.578125 C 5.5625 -3.234375 6.019531 -3.0625 6.59375 -3.0625 C 7.175781 -3.0625 7.640625 -3.234375 7.984375 -3.578125 C 8.328125 -3.921875 8.5 -4.515625 8.5 -5.359375 L 8.5 -17.96875 C 8.5 -18.8125 8.328125 -19.40625 7.984375 -19.75 C 7.640625 -20.09375 7.175781 -20.265625 6.59375 -20.265625 C 6.019531 -20.265625 5.5625 -20.09375 5.21875 -19.75 C 4.875 -19.40625 4.703125 -18.8125 4.703125 -17.96875 Z M 1.03125 -17.734375 C 1.03125 -19.617188 1.507812 -21.066406 2.46875 -22.078125 C 3.425781 -23.085938 4.800781 -23.59375 6.59375 -23.59375 C 8.394531 -23.59375 9.773438 -23.085938 10.734375 -22.078125 C 11.691406 -21.066406 12.171875 -19.617188 12.171875 -17.734375 L 12.171875 -5.59375 C 12.171875 -3.707031 11.691406 -2.257812 10.734375 -1.25 C 9.773438 -0.238281 8.394531 0.265625 6.59375 0.265625 C 4.800781 0.265625 3.425781 -0.238281 2.46875 -1.25 C 1.507812 -2.257812 1.03125 -3.707031 1.03125 -5.59375 Z M 1.03125 -17.734375 "/></g></g></g><g fill="#000000" fill-opacity="1"><g transform="translate(104.796211, 34.934343)"><g/></g></g><g fill="#000000" fill-opacity="1"><g transform="translate(109.961043, 34.934343)"><g><path d="M 11.96875 -8.703125 L 11.96875 -5.59375 C 11.96875 -3.707031 11.503906 -2.257812 10.578125 -1.25 C 9.660156 -0.238281 8.300781 0.265625 6.5 0.265625 C 4.695312 0.265625 3.332031 -0.238281 2.40625 -1.25 C 1.488281 -2.257812 1.03125 -3.707031 1.03125 -5.59375 L 1.03125 -17.734375 C 1.03125 -19.617188 1.488281 -21.066406 2.40625 -22.078125 C 3.332031 -23.085938 4.695312 -23.59375 6.5 -23.59375 C 8.300781 -23.59375 9.660156 -23.085938 10.578125 -22.078125 C 11.503906 -21.066406 11.96875 -19.617188 11.96875 -17.734375 L 11.96875 -15.46875 L 8.5 -15.46875 L 8.5 -17.96875 C 8.5 -18.8125 8.328125 -19.40625 7.984375 -19.75 C 7.640625 -20.09375 7.175781 -20.265625 6.59375 -20.265625 C 6.019531 -20.265625 5.5625 -20.09375 5.21875 -19.75 C 4.875 -19.40625 4.703125 -18.8125 4.703125 -17.96875 L 4.703125 -5.359375 C 4.703125 -4.515625 4.875 -3.925781 5.21875 -3.59375 C 5.5625 -3.257812 6.019531 -3.09375 6.59375 -3.09375 C 7.175781 -3.09375 7.640625 -3.257812 7.984375 -3.59375 C 8.328125 -3.925781 8.5 -4.515625 8.5 -5.359375 L 8.5 -8.703125 Z M 11.96875 -8.703125 "/></g></g></g><g fill="#000000" fill-opacity="1"><g transform="translate(122.823146, 34.934343)"><g><path d="M 4.703125 -5.359375 C 4.703125 -4.515625 4.875 -3.921875 5.21875 -3.578125 C 5.5625 -3.234375 6.019531 -3.0625 6.59375 -3.0625 C 7.175781 -3.0625 7.640625 -3.234375 7.984375 -3.578125 C 8.328125 -3.921875 8.5 -4.515625 8.5 -5.359375 L 8.5 -17.96875 C 8.5 -18.8125 8.328125 -19.40625 7.984375 -19.75 C 7.640625 -20.09375 7.175781 -20.265625 6.59375 -20.265625 C 6.019531 -20.265625 5.5625 -20.09375 5.21875 -19.75 C 4.875 -19.40625 4.703125 -18.8125 4.703125 -17.96875 Z M 1.03125 -17.734375 C 1.03125 -19.617188 1.507812 -21.066406 2.46875 -22.078125 C 3.425781 -23.085938 4.800781 -23.59375 6.59375 -23.59375 C 8.394531 -23.59375 9.773438 -23.085938 10.734375 -22.078125 C 11.691406 -21.066406 12.171875 -19.617188 12.171875 -17.734375 L 12.171875 -5.59375 C 12.171875 -3.707031 11.691406 -2.257812 10.734375 -1.25 C 9.773438 -0.238281 8.394531 0.265625 6.59375 0.265625 C 4.800781 0.265625 3.425781 -0.238281 2.46875 -1.25 C 1.507812 -2.257812 1.03125 -3.707031 1.03125 -5.59375 Z M 1.03125 -17.734375 "/></g></g></g><g fill="#000000" fill-opacity="1"><g transform="translate(136.018474, 34.934343)"><g><path d="M 0.859375 -17.734375 C 0.859375 -19.617188 1.304688 -21.066406 2.203125 -22.078125 C 3.109375 -23.085938 4.460938 -23.59375 6.265625 -23.59375 C 8.066406 -23.59375 9.414062 -23.085938 10.3125 -22.078125 C 11.21875 -21.066406 11.671875 -19.617188 11.671875 -17.734375 L 11.671875 -16.828125 L 8.203125 -16.828125 L 8.203125 -17.96875 C 8.203125 -18.8125 8.039062 -19.40625 7.71875 -19.75 C 7.394531 -20.09375 6.941406 -20.265625 6.359375 -20.265625 C 5.785156 -20.265625 5.335938 -20.09375 5.015625 -19.75 C 4.691406 -19.40625 4.53125 -18.8125 4.53125 -17.96875 C 4.53125 -17.164062 4.707031 -16.457031 5.0625 -15.84375 C 5.414062 -15.238281 5.859375 -14.660156 6.390625 -14.109375 C 6.929688 -13.566406 7.503906 -13.023438 8.109375 -12.484375 C 8.722656 -11.941406 9.296875 -11.347656 9.828125 -10.703125 C 10.359375 -10.054688 10.800781 -9.320312 11.15625 -8.5 C 11.519531 -7.675781 11.703125 -6.707031 11.703125 -5.59375 C 11.703125 -3.707031 11.238281 -2.257812 10.3125 -1.25 C 9.394531 -0.238281 8.035156 0.265625 6.234375 0.265625 C 4.429688 0.265625 3.066406 -0.238281 2.140625 -1.25 C 1.222656 -2.257812 0.765625 -3.707031 0.765625 -5.59375 L 0.765625 -7.203125 L 4.234375 -7.203125 L 4.234375 -5.359375 C 4.234375 -4.515625 4.40625 -3.925781 4.75 -3.59375 C 5.09375 -3.257812 5.550781 -3.09375 6.125 -3.09375 C 6.707031 -3.09375 7.171875 -3.257812 7.515625 -3.59375 C 7.859375 -3.925781 8.03125 -4.515625 8.03125 -5.359375 C 8.03125 -6.160156 7.851562 -6.867188 7.5 -7.484375 C 7.144531 -8.097656 6.695312 -8.675781 6.15625 -9.21875 C 5.625 -9.757812 5.050781 -10.300781 4.4375 -10.84375 C 3.832031 -11.394531 3.265625 -11.988281 2.734375 -12.625 C 2.203125 -13.269531 1.753906 -14.003906 1.390625 -14.828125 C 1.035156 -15.648438 0.859375 -16.617188 0.859375 -17.734375 Z M 0.859375 -17.734375 "/></g></g></g><g fill="#000000" fill-opacity="1"><g transform="translate(148.48073, 34.934343)"><g><path d="M 0.328125 -23.328125 L 11.671875 -23.328125 L 11.671875 -20 L 7.828125 -20 L 7.828125 0 L 4.171875 0 L 4.171875 -20 L 0.328125 -20 Z M 0.328125 -23.328125 "/></g></g></g><g fill="#000000" fill-opacity="1"><g transform="translate(160.476475, 34.934343)"><g><path d="M 13.203125 0 L 9.5 0 L 8.859375 -4.234375 L 4.359375 -4.234375 L 3.734375 0 L 0.359375 0 L 4.09375 -23.328125 L 9.46875 -23.328125 Z M 4.828125 -7.40625 L 8.359375 -7.40625 L 6.59375 -19.203125 Z M 4.828125 -7.40625 "/></g></g></g><g fill="#000000" fill-opacity="1"><g transform="translate(174.038331, 34.934343)"><g/></g></g><g fill="#000000" fill-opacity="1"><g transform="translate(179.203163, 34.934343)"><g><path d="M 1.328125 -23.328125 L 7.125 -23.328125 C 8.96875 -23.328125 10.335938 -22.835938 11.234375 -21.859375 C 12.140625 -20.878906 12.59375 -19.445312 12.59375 -17.5625 L 12.59375 -5.765625 C 12.59375 -3.878906 12.140625 -2.445312 11.234375 -1.46875 C 10.335938 -0.488281 8.96875 0 7.125 0 L 1.328125 0 Z M 5 -20 L 5 -3.328125 L 7.0625 -3.328125 C 7.644531 -3.328125 8.101562 -3.492188 8.4375 -3.828125 C 8.769531 -4.160156 8.9375 -4.75 8.9375 -5.59375 L 8.9375 -17.734375 C 8.9375 -18.578125 8.769531 -19.164062 8.4375 -19.5 C 8.101562 -19.832031 7.644531 -20 7.0625 -20 Z M 5 -20 "/></g></g></g><g fill="#000000" fill-opacity="1"><g transform="translate(192.798352, 34.934343)"><g><path d="M 5 -13.5 L 10.03125 -13.5 L 10.03125 -10.171875 L 5 -10.171875 L 5 -3.328125 L 11.328125 -3.328125 L 11.328125 0 L 1.328125 0 L 1.328125 -23.328125 L 11.328125 -23.328125 L 11.328125 -20 L 5 -20 Z M 5 -13.5 "/></g></g></g><g fill="#000000" fill-opacity="1"><g transform="translate(205.060671, 34.934343)"><g/></g></g><g fill="#000000" fill-opacity="1"><g transform="translate(210.225503, 34.934343)"><g><path d="M 4.703125 -5.359375 C 4.703125 -4.515625 4.875 -3.921875 5.21875 -3.578125 C 5.5625 -3.234375 6.019531 -3.0625 6.59375 -3.0625 C 7.175781 -3.0625 7.640625 -3.234375 7.984375 -3.578125 C 8.328125 -3.921875 8.5 -4.515625 8.5 -5.359375 L 8.5 -17.96875 C 8.5 -18.8125 8.328125 -19.40625 7.984375 -19.75 C 7.640625 -20.09375 7.175781 -20.265625 6.59375 -20.265625 C 6.019531 -20.265625 5.5625 -20.09375 5.21875 -19.75 C 4.875 -19.40625 4.703125 -18.8125 4.703125 -17.96875 Z M 1.03125 -17.734375 C 1.03125 -19.617188 1.507812 -21.066406 2.46875 -22.078125 C 3.425781 -23.085938 4.800781 -23.59375 6.59375 -23.59375 C 8.394531 -23.59375 9.773438 -23.085938 10.734375 -22.078125 C 11.691406 -21.066406 12.171875 -19.617188 12.171875 -17.734375 L 12.171875 -5.59375 C 12.171875 -3.707031 11.691406 -2.257812 10.734375 -1.25 C 9.773438 -0.238281 8.394531 0.265625 6.59375 0.265625 C 4.800781 0.265625 3.425781 -0.238281 2.46875 -1.25 C 1.507812 -2.257812 1.03125 -3.707031 1.03125 -5.59375 Z M 1.03125 -17.734375 "/></g></g></g><g fill="#000000" fill-opacity="1"><g transform="translate(223.420831, 34.934343)"><g><path d="M 1.328125 -23.328125 L 5 -23.328125 L 5 -3.328125 L 11.03125 -3.328125 L 11.03125 0 L 1.328125 0 Z M 1.328125 -23.328125 "/></g></g></g><g fill="#000000" fill-opacity="1"><g transform="translate(234.783473, 34.934343)"><g><path d="M 1.328125 -23.328125 L 5 -23.328125 L 5 0 L 1.328125 0 Z M 1.328125 -23.328125 "/></g></g></g><g fill="#000000" fill-opacity="1"><g transform="translate(241.114571, 34.934343)"><g><path d="M 6.859375 -4.296875 L 9.671875 -23.328125 L 13.03125 -23.328125 L 9.4375 0 L 3.96875 0 L 0.359375 -23.328125 L 4.0625 -23.328125 Z M 6.859375 -4.296875 "/></g></g></g><g fill="#000000" fill-opacity="1"><g transform="translate(254.509836, 34.934343)"><g><path d="M 5 -13.5 L 10.03125 -13.5 L 10.03125 -10.171875 L 5 -10.171875 L 5 -3.328125 L 11.328125 -3.328125 L 11.328125 0 L 1.328125 0 L 1.328125 -23.328125 L 11.328125 -23.328125 L 11.328125 -20 L 5 -20 Z M 5 -13.5 "/></g></g></g><g fill="#000000" fill-opacity="1"><g transform="translate(266.772126, 34.934343)"><g><path d="M 1.328125 -23.328125 L 5 -23.328125 L 5 0 L 1.328125 0 Z M 1.328125 -23.328125 "/></g></g></g><g fill="#000000" fill-opacity="1"><g transform="translate(273.103238, 34.934343)"><g><path d="M 9 0 C 8.957031 -0.15625 8.910156 -0.300781 8.859375 -0.4375 C 8.816406 -0.570312 8.78125 -0.738281 8.75 -0.9375 C 8.71875 -1.132812 8.695312 -1.390625 8.6875 -1.703125 C 8.675781 -2.015625 8.671875 -2.398438 8.671875 -2.859375 L 8.671875 -6.53125 C 8.671875 -7.625 8.476562 -8.390625 8.09375 -8.828125 C 7.71875 -9.273438 7.109375 -9.5 6.265625 -9.5 L 5 -9.5 L 5 0 L 1.328125 0 L 1.328125 -23.328125 L 6.859375 -23.328125 C 8.773438 -23.328125 10.160156 -22.878906 11.015625 -21.984375 C 11.867188 -21.097656 12.296875 -19.757812 12.296875 -17.96875 L 12.296875 -16.125 C 12.296875 -13.726562 11.492188 -12.148438 9.890625 -11.390625 C 10.828125 -11.015625 11.46875 -10.398438 11.8125 -9.546875 C 12.15625 -8.691406 12.328125 -7.65625 12.328125 -6.4375 L 12.328125 -2.828125 C 12.328125 -2.253906 12.347656 -1.75 12.390625 -1.3125 C 12.441406 -0.882812 12.554688 -0.445312 12.734375 0 Z M 5 -20 L 5 -12.828125 L 6.4375 -12.828125 C 7.125 -12.828125 7.660156 -13.003906 8.046875 -13.359375 C 8.429688 -13.710938 8.625 -14.359375 8.625 -15.296875 L 8.625 -17.59375 C 8.625 -18.4375 8.472656 -19.046875 8.171875 -19.421875 C 7.878906 -19.804688 7.410156 -20 6.765625 -20 Z M 5 -20 "/></g></g></g><g fill="#000000" fill-opacity="1"><g transform="translate(286.498489, 34.934343)"><g><path d="M 13.203125 0 L 9.5 0 L 8.859375 -4.234375 L 4.359375 -4.234375 L 3.734375 0 L 0.359375 0 L 4.09375 -23.328125 L 9.46875 -23.328125 Z M 4.828125 -7.40625 L 8.359375 -7.40625 L 6.59375 -19.203125 Z M 4.828125 -7.40625 "/></g></g></g></g></g></g></g></g></mask><clipPath id="a7e17952ad"><path d="M 0 0 L 300 0 L 300 75 L 0 75 Z M 0 0 " clip-rule="nonzero"/></clipPath><clipPath id="c41cb536cd"><rect x="0" width="300" y="0" height="75"/></clipPath><clipPath id="054e130156"><rect x="0" width="300" y="0" height="75"/></clipPath><clipPath id="e67be3a278"><rect x="0" width="300" y="0" height="75"/></clipPath><clipPath id="0ec99d2ac7"><path d="M 0 23.355469 L 300 23.355469 L 300 75 L 0 75 Z M 0 23.355469 " clip-rule="nonzero"/></clipPath><clipPath id="d18d2b7e71"><path d="M 0 0.355469 L 300 0.355469 L 300 52 L 0 52 Z M 0 0.355469 " clip-rule="nonzero"/></clipPath><clipPath id="be48e8017d"><path d="M 0 2.605469 L 300 2.605469 L 300 52 L 0 52 Z M 0 2.605469 " clip-rule="nonzero"/></clipPath><radialGradient gradientTransform="matrix(1.000744, 0, 0, 0.999256, 3.68924, 22.86051)" gradientUnits="userSpaceOnUse" r="148.222252" cx="148.115726" id="8819fed3fd" cy="7.87698" fx="148.115726" fy="7.87698"><stop stop-opacity="1" stop-color="rgb(90.663147%, 66.845703%, 31.97937%)" offset="0"/><stop stop-opacity="1" stop-color="rgb(90.809631%, 67.201233%, 32.420349%)" offset="0.00390625"/><stop stop-opacity="1" stop-color="rgb(90.956116%, 67.556763%, 32.861328%)" offset="0.0078125"/><stop stop-opacity="1" stop-color="rgb(91.104126%, 67.912292%, 33.302307%)" offset="0.0117188"/><stop stop-opacity="1" stop-color="rgb(91.25061%, 68.267822%, 33.744812%)" offset="0.015625"/><stop stop-opacity="1" stop-color="rgb(91.397095%, 68.623352%, 34.185791%)" offset="0.0195312"/><stop stop-opacity="1" stop-color="rgb(91.545105%, 68.977356%, 34.62677%)" offset="0.0234375"/><stop stop-opacity="1" stop-color="rgb(91.691589%, 69.332886%, 35.067749%)" offset="0.0273438"/><stop stop-opacity="1" stop-color="rgb(91.838074%, 69.688416%, 35.508728%)" offset="0.03125"/><stop stop-opacity="1" stop-color="rgb(91.986084%, 70.043945%, 35.951233%)" offset="0.0351562"/><stop stop-opacity="1" stop-color="rgb(92.132568%, 70.399475%, 36.392212%)" offset="0.0390625"/><stop stop-opacity="1" stop-color="rgb(92.280579%, 70.755005%, 36.833191%)" offset="0.0429688"/><stop stop-opacity="1" stop-color="rgb(92.427063%, 71.110535%, 37.27417%)" offset="0.046875"/><stop stop-opacity="1" stop-color="rgb(92.573547%, 71.466064%, 37.715149%)" offset="0.0507812"/><stop stop-opacity="1" stop-color="rgb(92.721558%, 71.820068%, 38.156128%)" offset="0.0546875"/><stop stop-opacity="1" stop-color="rgb(92.868042%, 72.175598%, 38.598633%)" offset="0.0585938"/><stop stop-opacity="1" stop-color="rgb(93.014526%, 72.531128%, 39.039612%)" offset="0.0625"/><stop stop-opacity="1" stop-color="rgb(93.162537%, 72.886658%, 39.480591%)" offset="0.0664062"/><stop stop-opacity="1" stop-color="rgb(93.309021%, 73.242188%, 39.92157%)" offset="0.0703125"/><stop stop-opacity="1" stop-color="rgb(93.455505%, 73.597717%, 40.362549%)" offset="0.0742188"/><stop stop-opacity="1" stop-color="rgb(93.603516%, 73.953247%, 40.803528%)" offset="0.078125"/><stop stop-opacity="1" stop-color="rgb(93.75%, 74.307251%, 41.246033%)" offset="0.0820312"/><stop stop-opacity="1" stop-color="rgb(93.896484%, 74.662781%, 41.687012%)" offset="0.0859375"/><stop stop-opacity="1" stop-color="rgb(94.044495%, 75.018311%, 42.127991%)" offset="0.0898438"/><stop stop-opacity="1" stop-color="rgb(94.190979%, 75.37384%, 42.56897%)" offset="0.09375"/><stop stop-opacity="1" stop-color="rgb(94.338989%, 75.72937%, 43.009949%)" offset="0.0976562"/><stop stop-opacity="1" stop-color="rgb(94.485474%, 76.0849%, 43.452454%)" offset="0.101562"/><stop stop-opacity="1" stop-color="rgb(94.631958%, 76.44043%, 43.893433%)" offset="0.105469"/><stop stop-opacity="1" stop-color="rgb(94.779968%, 76.794434%, 44.334412%)" offset="0.109375"/><stop stop-opacity="1" stop-color="rgb(94.926453%, 77.149963%, 44.775391%)" offset="0.113281"/><stop stop-opacity="1" stop-color="rgb(95.072937%, 77.505493%, 45.21637%)" offset="0.117188"/><stop stop-opacity="1" stop-color="rgb(95.220947%, 77.861023%, 45.657349%)" offset="0.121094"/><stop stop-opacity="1" stop-color="rgb(95.367432%, 78.216553%, 46.099854%)" offset="0.125"/><stop stop-opacity="1" stop-color="rgb(95.513916%, 78.572083%, 46.540833%)" offset="0.128906"/><stop stop-opacity="1" stop-color="rgb(95.661926%, 78.927612%, 46.981812%)" offset="0.132812"/><stop stop-opacity="1" stop-color="rgb(95.808411%, 79.281616%, 47.422791%)" offset="0.136719"/><stop stop-opacity="1" stop-color="rgb(95.954895%, 79.637146%, 47.86377%)" offset="0.140625"/><stop stop-opacity="1" stop-color="rgb(96.102905%, 79.992676%, 48.304749%)" offset="0.144531"/><stop stop-opacity="1" stop-color="rgb(96.24939%, 80.348206%, 48.747253%)" offset="0.148438"/><stop stop-opacity="1" stop-color="rgb(96.3974%, 80.703735%, 49.188232%)" offset="0.152344"/><stop stop-opacity="1" stop-color="rgb(96.543884%, 81.059265%, 49.629211%)" offset="0.15625"/><stop stop-opacity="1" stop-color="rgb(96.690369%, 81.414795%, 50.07019%)" offset="0.160156"/><stop stop-opacity="1" stop-color="rgb(96.838379%, 81.768799%, 50.511169%)" offset="0.164062"/><stop stop-opacity="1" stop-color="rgb(96.984863%, 82.124329%, 50.953674%)" offset="0.167969"/><stop stop-opacity="1" stop-color="rgb(97.131348%, 82.479858%, 51.394653%)" offset="0.171875"/><stop stop-opacity="1" stop-color="rgb(97.279358%, 82.835388%, 51.835632%)" offset="0.175781"/><stop stop-opacity="1" stop-color="rgb(97.425842%, 83.190918%, 52.276611%)" offset="0.179688"/><stop stop-opacity="1" stop-color="rgb(97.572327%, 83.546448%, 52.71759%)" offset="0.183594"/><stop stop-opacity="1" stop-color="rgb(97.720337%, 83.901978%, 53.158569%)" offset="0.1875"/><stop stop-opacity="1" stop-color="rgb(97.866821%, 84.255981%, 53.601074%)" offset="0.191406"/><stop stop-opacity="1" stop-color="rgb(98.013306%, 84.611511%, 54.042053%)" offset="0.195312"/><stop stop-opacity="1" stop-color="rgb(98.161316%, 84.967041%, 54.483032%)" offset="0.199219"/><stop stop-opacity="1" stop-color="rgb(98.3078%, 85.322571%, 54.924011%)" offset="0.203125"/><stop stop-opacity="1" stop-color="rgb(98.455811%, 85.678101%, 55.36499%)" offset="0.207031"/><stop stop-opacity="1" stop-color="rgb(98.602295%, 86.03363%, 55.807495%)" offset="0.210938"/><stop stop-opacity="1" stop-color="rgb(98.748779%, 86.38916%, 56.248474%)" offset="0.214844"/><stop stop-opacity="1" stop-color="rgb(98.89679%, 86.743164%, 56.689453%)" offset="0.21875"/><stop stop-opacity="1" stop-color="rgb(99.043274%, 87.098694%, 57.130432%)" offset="0.222656"/><stop stop-opacity="1" stop-color="rgb(99.189758%, 87.454224%, 57.571411%)" offset="0.226562"/><stop stop-opacity="1" stop-color="rgb(99.337769%, 87.809753%, 58.01239%)" offset="0.230469"/><stop stop-opacity="1" stop-color="rgb(99.484253%, 88.165283%, 58.454895%)" offset="0.234375"/><stop stop-opacity="1" stop-color="rgb(99.630737%, 88.520813%, 58.895874%)" offset="0.238281"/><stop stop-opacity="1" stop-color="rgb(99.778748%, 88.876343%, 59.336853%)" offset="0.242188"/><stop stop-opacity="1" stop-color="rgb(99.925232%, 89.230347%, 59.777832%)" offset="0.246094"/><stop stop-opacity="1" stop-color="rgb(99.650574%, 88.986206%, 59.613037%)" offset="0.25"/><stop stop-opacity="1" stop-color="rgb(98.951721%, 88.140869%, 58.840942%)" offset="0.253906"/><stop stop-opacity="1" stop-color="rgb(98.252869%, 87.295532%, 58.068848%)" offset="0.257812"/><stop stop-opacity="1" stop-color="rgb(97.554016%, 86.448669%, 57.296753%)" offset="0.261719"/><stop stop-opacity="1" stop-color="rgb(96.855164%, 85.603333%, 56.524658%)" offset="0.265625"/><stop stop-opacity="1" stop-color="rgb(96.156311%, 84.757996%, 55.752563%)" offset="0.269531"/><stop stop-opacity="1" stop-color="rgb(95.458984%, 83.912659%, 54.980469%)" offset="0.273438"/><stop stop-opacity="1" stop-color="rgb(94.760132%, 83.067322%, 54.208374%)" offset="0.277344"/><stop stop-opacity="1" stop-color="rgb(94.061279%, 82.221985%, 53.436279%)" offset="0.28125"/><stop stop-opacity="1" stop-color="rgb(93.362427%, 81.375122%, 52.664185%)" offset="0.285156"/><stop stop-opacity="1" stop-color="rgb(92.663574%, 80.529785%, 51.893616%)" offset="0.289062"/><stop stop-opacity="1" stop-color="rgb(91.964722%, 79.684448%, 51.121521%)" offset="0.292969"/><stop stop-opacity="1" stop-color="rgb(91.267395%, 78.839111%, 50.349426%)" offset="0.296875"/><stop stop-opacity="1" stop-color="rgb(90.568542%, 77.993774%, 49.577332%)" offset="0.300781"/><stop stop-opacity="1" stop-color="rgb(89.86969%, 77.146912%, 48.805237%)" offset="0.304688"/><stop stop-opacity="1" stop-color="rgb(89.170837%, 76.301575%, 48.033142%)" offset="0.308594"/><stop stop-opacity="1" stop-color="rgb(88.471985%, 75.456238%, 47.261047%)" offset="0.3125"/><stop stop-opacity="1" stop-color="rgb(87.773132%, 74.610901%, 46.488953%)" offset="0.316406"/><stop stop-opacity="1" stop-color="rgb(87.075806%, 73.765564%, 45.716858%)" offset="0.320312"/><stop stop-opacity="1" stop-color="rgb(86.376953%, 72.918701%, 44.944763%)" offset="0.324219"/><stop stop-opacity="1" stop-color="rgb(85.678101%, 72.073364%, 44.172668%)" offset="0.328125"/><stop stop-opacity="1" stop-color="rgb(84.979248%, 71.228027%, 43.400574%)" offset="0.332031"/><stop stop-opacity="1" stop-color="rgb(84.280396%, 70.38269%, 42.628479%)" offset="0.335938"/><stop stop-opacity="1" stop-color="rgb(83.581543%, 69.537354%, 41.856384%)" offset="0.339844"/><stop stop-opacity="1" stop-color="rgb(82.884216%, 68.692017%, 41.08429%)" offset="0.34375"/><stop stop-opacity="1" stop-color="rgb(82.185364%, 67.845154%, 40.312195%)" offset="0.347656"/><stop stop-opacity="1" stop-color="rgb(81.486511%, 66.999817%, 39.5401%)" offset="0.351562"/><stop stop-opacity="1" stop-color="rgb(80.787659%, 66.15448%, 38.768005%)" offset="0.355469"/><stop stop-opacity="1" stop-color="rgb(80.088806%, 65.309143%, 37.995911%)" offset="0.359375"/><stop stop-opacity="1" stop-color="rgb(79.389954%, 64.463806%, 37.223816%)" offset="0.363281"/><stop stop-opacity="1" stop-color="rgb(78.692627%, 63.616943%, 36.451721%)" offset="0.367188"/><stop stop-opacity="1" stop-color="rgb(77.993774%, 62.771606%, 35.679626%)" offset="0.371094"/><stop stop-opacity="1" stop-color="rgb(77.294922%, 61.92627%, 34.907532%)" offset="0.375"/><stop stop-opacity="1" stop-color="rgb(76.596069%, 61.080933%, 34.135437%)" offset="0.378906"/><stop stop-opacity="1" stop-color="rgb(75.897217%, 60.235596%, 33.364868%)" offset="0.382812"/><stop stop-opacity="1" stop-color="rgb(75.198364%, 59.388733%, 32.592773%)" offset="0.386719"/><stop stop-opacity="1" stop-color="rgb(74.501038%, 58.543396%, 31.820679%)" offset="0.390625"/><stop stop-opacity="1" stop-color="rgb(73.802185%, 57.698059%, 31.048584%)" offset="0.394531"/><stop stop-opacity="1" stop-color="rgb(73.103333%, 56.852722%, 30.276489%)" offset="0.398438"/><stop stop-opacity="1" stop-color="rgb(72.40448%, 56.007385%, 29.504395%)" offset="0.402344"/><stop stop-opacity="1" stop-color="rgb(71.705627%, 55.160522%, 28.7323%)" offset="0.40625"/><stop stop-opacity="1" stop-color="rgb(71.006775%, 54.315186%, 27.960205%)" offset="0.410156"/><stop stop-opacity="1" stop-color="rgb(70.309448%, 53.469849%, 27.18811%)" offset="0.414062"/><stop stop-opacity="1" stop-color="rgb(69.610596%, 52.624512%, 26.416016%)" offset="0.417969"/><stop stop-opacity="1" stop-color="rgb(68.911743%, 51.779175%, 25.643921%)" offset="0.421875"/><stop stop-opacity="1" stop-color="rgb(68.212891%, 50.933838%, 24.871826%)" offset="0.425781"/><stop stop-opacity="1" stop-color="rgb(67.514038%, 50.086975%, 24.099731%)" offset="0.429688"/><stop stop-opacity="1" stop-color="rgb(66.815186%, 49.241638%, 23.327637%)" offset="0.433594"/><stop stop-opacity="1" stop-color="rgb(66.117859%, 48.396301%, 22.555542%)" offset="0.4375"/><stop stop-opacity="1" stop-color="rgb(65.419006%, 47.550964%, 21.783447%)" offset="0.441406"/><stop stop-opacity="1" stop-color="rgb(64.720154%, 46.705627%, 21.011353%)" offset="0.445312"/><stop stop-opacity="1" stop-color="rgb(64.021301%, 45.858765%, 20.239258%)" offset="0.449219"/><stop stop-opacity="1" stop-color="rgb(63.322449%, 45.013428%, 19.467163%)" offset="0.453125"/><stop stop-opacity="1" stop-color="rgb(62.623596%, 44.168091%, 18.695068%)" offset="0.457031"/><stop stop-opacity="1" stop-color="rgb(61.92627%, 43.322754%, 17.922974%)" offset="0.460938"/><stop stop-opacity="1" stop-color="rgb(61.227417%, 42.477417%, 17.150879%)" offset="0.464844"/><stop stop-opacity="1" stop-color="rgb(60.528564%, 41.630554%, 16.378784%)" offset="0.46875"/><stop stop-opacity="1" stop-color="rgb(59.829712%, 40.785217%, 15.606689%)" offset="0.472656"/><stop stop-opacity="1" stop-color="rgb(59.130859%, 39.93988%, 14.836121%)" offset="0.476562"/><stop stop-opacity="1" stop-color="rgb(58.433533%, 39.094543%, 14.064026%)" offset="0.480469"/><stop stop-opacity="1" stop-color="rgb(57.73468%, 38.249207%, 13.291931%)" offset="0.484375"/><stop stop-opacity="1" stop-color="rgb(57.035828%, 37.40387%, 12.519836%)" offset="0.488281"/><stop stop-opacity="1" stop-color="rgb(56.336975%, 36.557007%, 11.747742%)" offset="0.492188"/><stop stop-opacity="1" stop-color="rgb(55.638123%, 35.71167%, 10.975647%)" offset="0.496094"/><stop stop-opacity="1" stop-color="rgb(55.56488%, 35.533142%, 10.754395%)" offset="0.5"/><stop stop-opacity="1" stop-color="rgb(56.115723%, 36.024475%, 11.08551%)" offset="0.503906"/><stop stop-opacity="1" stop-color="rgb(56.668091%, 36.514282%, 11.4151%)" offset="0.507812"/><stop stop-opacity="1" stop-color="rgb(57.218933%, 37.004089%, 11.746216%)" offset="0.511719"/><stop stop-opacity="1" stop-color="rgb(57.771301%, 37.495422%, 12.077332%)" offset="0.515625"/><stop stop-opacity="1" stop-color="rgb(58.322144%, 37.985229%, 12.408447%)" offset="0.519531"/><stop stop-opacity="1" stop-color="rgb(58.874512%, 38.475037%, 12.738037%)" offset="0.523438"/><stop stop-opacity="1" stop-color="rgb(59.425354%, 38.96637%, 13.069153%)" offset="0.527344"/><stop stop-opacity="1" stop-color="rgb(59.977722%, 39.456177%, 13.400269%)" offset="0.53125"/><stop stop-opacity="1" stop-color="rgb(60.528564%, 39.945984%, 13.731384%)" offset="0.535156"/><stop stop-opacity="1" stop-color="rgb(61.080933%, 40.437317%, 14.0625%)" offset="0.539062"/><stop stop-opacity="1" stop-color="rgb(61.631775%, 40.927124%, 14.39209%)" offset="0.542969"/><stop stop-opacity="1" stop-color="rgb(62.182617%, 41.416931%, 14.723206%)" offset="0.546875"/><stop stop-opacity="1" stop-color="rgb(62.734985%, 41.908264%, 15.054321%)" offset="0.550781"/><stop stop-opacity="1" stop-color="rgb(63.285828%, 42.398071%, 15.385437%)" offset="0.554688"/><stop stop-opacity="1" stop-color="rgb(63.838196%, 42.887878%, 15.715027%)" offset="0.558594"/><stop stop-opacity="1" stop-color="rgb(64.389038%, 43.379211%, 16.046143%)" offset="0.5625"/><stop stop-opacity="1" stop-color="rgb(64.941406%, 43.869019%, 16.377258%)" offset="0.566406"/><stop stop-opacity="1" stop-color="rgb(65.492249%, 44.358826%, 16.708374%)" offset="0.570312"/><stop stop-opacity="1" stop-color="rgb(66.044617%, 44.850159%, 17.03949%)" offset="0.574219"/><stop stop-opacity="1" stop-color="rgb(66.595459%, 45.339966%, 17.36908%)" offset="0.578125"/><stop stop-opacity="1" stop-color="rgb(67.147827%, 45.829773%, 17.700195%)" offset="0.582031"/><stop stop-opacity="1" stop-color="rgb(67.698669%, 46.321106%, 18.031311%)" offset="0.585938"/><stop stop-opacity="1" stop-color="rgb(68.251038%, 46.810913%, 18.362427%)" offset="0.589844"/><stop stop-opacity="1" stop-color="rgb(68.80188%, 47.30072%, 18.693542%)" offset="0.59375"/><stop stop-opacity="1" stop-color="rgb(69.354248%, 47.792053%, 19.023132%)" offset="0.597656"/><stop stop-opacity="1" stop-color="rgb(69.90509%, 48.28186%, 19.354248%)" offset="0.601562"/><stop stop-opacity="1" stop-color="rgb(70.457458%, 48.771667%, 19.685364%)" offset="0.605469"/><stop stop-opacity="1" stop-color="rgb(71.008301%, 49.263%, 20.016479%)" offset="0.609375"/><stop stop-opacity="1" stop-color="rgb(71.560669%, 49.752808%, 20.346069%)" offset="0.613281"/><stop stop-opacity="1" stop-color="rgb(72.111511%, 50.242615%, 20.677185%)" offset="0.617188"/><stop stop-opacity="1" stop-color="rgb(72.662354%, 50.733948%, 21.008301%)" offset="0.621094"/><stop stop-opacity="1" stop-color="rgb(73.214722%, 51.223755%, 21.339417%)" offset="0.625"/><stop stop-opacity="1" stop-color="rgb(73.765564%, 51.713562%, 21.670532%)" offset="0.628906"/><stop stop-opacity="1" stop-color="rgb(74.317932%, 52.204895%, 22.000122%)" offset="0.632812"/><stop stop-opacity="1" stop-color="rgb(74.868774%, 52.694702%, 22.331238%)" offset="0.636719"/><stop stop-opacity="1" stop-color="rgb(75.421143%, 53.184509%, 22.662354%)" offset="0.640625"/><stop stop-opacity="1" stop-color="rgb(75.971985%, 53.675842%, 22.993469%)" offset="0.644531"/><stop stop-opacity="1" stop-color="rgb(76.524353%, 54.165649%, 23.323059%)" offset="0.648438"/><stop stop-opacity="1" stop-color="rgb(77.075195%, 54.655457%, 23.654175%)" offset="0.652344"/><stop stop-opacity="1" stop-color="rgb(77.627563%, 55.14679%, 23.985291%)" offset="0.65625"/><stop stop-opacity="1" stop-color="rgb(78.178406%, 55.636597%, 24.316406%)" offset="0.660156"/><stop stop-opacity="1" stop-color="rgb(78.730774%, 56.126404%, 24.647522%)" offset="0.664062"/><stop stop-opacity="1" stop-color="rgb(79.281616%, 56.617737%, 24.977112%)" offset="0.667969"/><stop stop-opacity="1" stop-color="rgb(79.833984%, 57.107544%, 25.308228%)" offset="0.671875"/><stop stop-opacity="1" stop-color="rgb(80.384827%, 57.597351%, 25.639343%)" offset="0.675781"/><stop stop-opacity="1" stop-color="rgb(80.937195%, 58.088684%, 25.970459%)" offset="0.679688"/><stop stop-opacity="1" stop-color="rgb(81.488037%, 58.578491%, 26.300049%)" offset="0.683594"/><stop stop-opacity="1" stop-color="rgb(82.038879%, 59.068298%, 26.631165%)" offset="0.6875"/><stop stop-opacity="1" stop-color="rgb(82.591248%, 59.559631%, 26.96228%)" offset="0.691406"/><stop stop-opacity="1" stop-color="rgb(83.14209%, 60.049438%, 27.293396%)" offset="0.695312"/><stop stop-opacity="1" stop-color="rgb(83.694458%, 60.539246%, 27.624512%)" offset="0.699219"/><stop stop-opacity="1" stop-color="rgb(84.2453%, 61.030579%, 27.954102%)" offset="0.703125"/><stop stop-opacity="1" stop-color="rgb(84.797668%, 61.520386%, 28.285217%)" offset="0.707031"/><stop stop-opacity="1" stop-color="rgb(85.348511%, 62.010193%, 28.616333%)" offset="0.710938"/><stop stop-opacity="1" stop-color="rgb(85.900879%, 62.501526%, 28.947449%)" offset="0.714844"/><stop stop-opacity="1" stop-color="rgb(86.451721%, 62.991333%, 29.277039%)" offset="0.71875"/><stop stop-opacity="1" stop-color="rgb(87.004089%, 63.48114%, 29.608154%)" offset="0.722656"/><stop stop-opacity="1" stop-color="rgb(87.554932%, 63.972473%, 29.93927%)" offset="0.726562"/><stop stop-opacity="1" stop-color="rgb(88.1073%, 64.46228%, 30.270386%)" offset="0.730469"/><stop stop-opacity="1" stop-color="rgb(88.658142%, 64.952087%, 30.601501%)" offset="0.734375"/><stop stop-opacity="1" stop-color="rgb(89.21051%, 65.44342%, 30.931091%)" offset="0.738281"/><stop stop-opacity="1" stop-color="rgb(89.761353%, 65.933228%, 31.262207%)" offset="0.742188"/><stop stop-opacity="1" stop-color="rgb(90.313721%, 66.423035%, 31.593323%)" offset="0.746094"/><stop stop-opacity="1" stop-color="rgb(90.408325%, 66.490173%, 31.660461%)" offset="0.75"/><stop stop-opacity="1" stop-color="rgb(90.046692%, 66.134644%, 31.465149%)" offset="0.753906"/><stop stop-opacity="1" stop-color="rgb(89.685059%, 65.779114%, 31.269836%)" offset="0.757812"/><stop stop-opacity="1" stop-color="rgb(89.323425%, 65.42511%, 31.072998%)" offset="0.761719"/><stop stop-opacity="1" stop-color="rgb(88.961792%, 65.06958%, 30.877686%)" offset="0.765625"/><stop stop-opacity="1" stop-color="rgb(88.600159%, 64.71405%, 30.680847%)" offset="0.769531"/><stop stop-opacity="1" stop-color="rgb(88.238525%, 64.358521%, 30.485535%)" offset="0.773438"/><stop stop-opacity="1" stop-color="rgb(87.876892%, 64.002991%, 30.288696%)" offset="0.777344"/><stop stop-opacity="1" stop-color="rgb(87.515259%, 63.647461%, 30.093384%)" offset="0.78125"/><stop stop-opacity="1" stop-color="rgb(87.153625%, 63.291931%, 29.898071%)" offset="0.785156"/><stop stop-opacity="1" stop-color="rgb(86.791992%, 62.936401%, 29.701233%)" offset="0.789062"/><stop stop-opacity="1" stop-color="rgb(86.430359%, 62.580872%, 29.50592%)" offset="0.792969"/><stop stop-opacity="1" stop-color="rgb(86.068726%, 62.225342%, 29.309082%)" offset="0.796875"/><stop stop-opacity="1" stop-color="rgb(85.707092%, 61.869812%, 29.11377%)" offset="0.800781"/><stop stop-opacity="1" stop-color="rgb(85.345459%, 61.514282%, 28.918457%)" offset="0.804688"/><stop stop-opacity="1" stop-color="rgb(84.983826%, 61.158752%, 28.721619%)" offset="0.808594"/><stop stop-opacity="1" stop-color="rgb(84.622192%, 60.803223%, 28.526306%)" offset="0.8125"/><stop stop-opacity="1" stop-color="rgb(84.260559%, 60.447693%, 28.329468%)" offset="0.816406"/><stop stop-opacity="1" stop-color="rgb(83.898926%, 60.092163%, 28.134155%)" offset="0.820312"/><stop stop-opacity="1" stop-color="rgb(83.537292%, 59.736633%, 27.938843%)" offset="0.824219"/><stop stop-opacity="1" stop-color="rgb(83.177185%, 59.381104%, 27.742004%)" offset="0.828125"/><stop stop-opacity="1" stop-color="rgb(82.815552%, 59.025574%, 27.546692%)" offset="0.832031"/><stop stop-opacity="1" stop-color="rgb(82.453918%, 58.670044%, 27.349854%)" offset="0.835938"/><stop stop-opacity="1" stop-color="rgb(82.092285%, 58.314514%, 27.154541%)" offset="0.839844"/><stop stop-opacity="1" stop-color="rgb(81.730652%, 57.958984%, 26.957703%)" offset="0.84375"/><stop stop-opacity="1" stop-color="rgb(81.369019%, 57.603455%, 26.76239%)" offset="0.847656"/><stop stop-opacity="1" stop-color="rgb(81.007385%, 57.247925%, 26.567078%)" offset="0.851562"/><stop stop-opacity="1" stop-color="rgb(80.645752%, 56.892395%, 26.370239%)" offset="0.855469"/><stop stop-opacity="1" stop-color="rgb(80.284119%, 56.538391%, 26.174927%)" offset="0.859375"/><stop stop-opacity="1" stop-color="rgb(79.922485%, 56.182861%, 25.978088%)" offset="0.863281"/><stop stop-opacity="1" stop-color="rgb(79.560852%, 55.827332%, 25.782776%)" offset="0.867188"/><stop stop-opacity="1" stop-color="rgb(79.199219%, 55.471802%, 25.587463%)" offset="0.871094"/><stop stop-opacity="1" stop-color="rgb(78.837585%, 55.116272%, 25.390625%)" offset="0.875"/><stop stop-opacity="1" stop-color="rgb(78.475952%, 54.760742%, 25.195312%)" offset="0.878906"/><stop stop-opacity="1" stop-color="rgb(78.114319%, 54.405212%, 24.998474%)" offset="0.882812"/><stop stop-opacity="1" stop-color="rgb(77.752686%, 54.049683%, 24.803162%)" offset="0.886719"/><stop stop-opacity="1" stop-color="rgb(77.391052%, 53.694153%, 24.607849%)" offset="0.890625"/><stop stop-opacity="1" stop-color="rgb(77.029419%, 53.338623%, 24.411011%)" offset="0.894531"/><stop stop-opacity="1" stop-color="rgb(76.667786%, 52.983093%, 24.215698%)" offset="0.898438"/><stop stop-opacity="1" stop-color="rgb(76.306152%, 52.627563%, 24.01886%)" offset="0.902344"/><stop stop-opacity="1" stop-color="rgb(75.944519%, 52.272034%, 23.823547%)" offset="0.90625"/><stop stop-opacity="1" stop-color="rgb(75.584412%, 51.916504%, 23.628235%)" offset="0.910156"/><stop stop-opacity="1" stop-color="rgb(75.222778%, 51.560974%, 23.431396%)" offset="0.914062"/><stop stop-opacity="1" stop-color="rgb(74.861145%, 51.205444%, 23.236084%)" offset="0.917969"/><stop stop-opacity="1" stop-color="rgb(74.499512%, 50.849915%, 23.039246%)" offset="0.921875"/><stop stop-opacity="1" stop-color="rgb(74.137878%, 50.494385%, 22.843933%)" offset="0.925781"/><stop stop-opacity="1" stop-color="rgb(73.776245%, 50.138855%, 22.647095%)" offset="0.929688"/><stop stop-opacity="1" stop-color="rgb(73.414612%, 49.783325%, 22.451782%)" offset="0.933594"/><stop stop-opacity="1" stop-color="rgb(73.052979%, 49.427795%, 22.25647%)" offset="0.9375"/><stop stop-opacity="1" stop-color="rgb(72.691345%, 49.072266%, 22.059631%)" offset="0.941406"/><stop stop-opacity="1" stop-color="rgb(72.329712%, 48.716736%, 21.864319%)" offset="0.945312"/><stop stop-opacity="1" stop-color="rgb(71.968079%, 48.361206%, 21.66748%)" offset="0.949219"/><stop stop-opacity="1" stop-color="rgb(71.606445%, 48.005676%, 21.472168%)" offset="0.953125"/><stop stop-opacity="1" stop-color="rgb(71.244812%, 47.651672%, 21.276855%)" offset="0.957031"/><stop stop-opacity="1" stop-color="rgb(70.883179%, 47.296143%, 21.080017%)" offset="0.960938"/><stop stop-opacity="1" stop-color="rgb(70.521545%, 46.940613%, 20.884705%)" offset="0.964844"/><stop stop-opacity="1" stop-color="rgb(70.159912%, 46.585083%, 20.687866%)" offset="0.96875"/><stop stop-opacity="1" stop-color="rgb(69.798279%, 46.229553%, 20.492554%)" offset="0.972656"/><stop stop-opacity="1" stop-color="rgb(69.436646%, 45.874023%, 20.297241%)" offset="0.976562"/><stop stop-opacity="1" stop-color="rgb(69.075012%, 45.518494%, 20.100403%)" offset="0.980469"/><stop stop-opacity="1" stop-color="rgb(68.713379%, 45.162964%, 19.90509%)" offset="0.984375"/><stop stop-opacity="1" stop-color="rgb(68.351746%, 44.807434%, 19.708252%)" offset="0.988281"/><stop stop-opacity="1" stop-color="rgb(67.990112%, 44.451904%, 19.512939%)" offset="0.992188"/><stop stop-opacity="1" stop-color="rgb(67.630005%, 44.096375%, 19.317627%)" offset="0.996094"/><stop stop-opacity="1" stop-color="rgb(67.449951%, 43.919373%, 19.219971%)" offset="1"/></radialGradient><clipPath id="ce2e1e232a"><rect x="0" width="300" y="0" height="52"/></clipPath><clipPath id="19c22eab2a"><path d="M 0 0.355469 L 300 0.355469 L 300 52 L 0 52 Z M 0 0.355469 " clip-rule="nonzero"/></clipPath><clipPath id="a75f9d92be"><rect x="0" width="300" y="0" height="52"/></clipPath><clipPath id="ba02116169"><rect x="0" width="300" y="0" height="52"/></clipPath><mask id="2d768e8cff"><g filter="url(#bce6a66f5f)"><g transform="matrix(1, 0, 0, 1, 0, -0.000000000000003553)"><g clip-path="url(#ba02116169)"><g clip-path="url(#19c22eab2a)"><g transform="matrix(1, 0, 0, 1, 0, -0.000000000000003553)"><g clip-path="url(#a75f9d92be)"><g fill="#000000" fill-opacity="1"><g transform="translate(3.642377, 33.357001)"><g><path d="M 1.6875 -4.5625 L 3.390625 -4.5625 L 3.390625 -3.4375 L 1.6875 -3.4375 L 1.6875 -1.125 L 3.828125 -1.125 L 3.828125 0 L 0.453125 0 L 0.453125 -7.875 L 3.828125 -7.875 L 3.828125 -6.75 L 1.6875 -6.75 Z M 1.6875 -4.5625 "/></g></g></g><g fill="#000000" fill-opacity="1"><g transform="translate(10.270176, 33.357001)"><g><path d="M 0.296875 -5.984375 C 0.296875 -6.617188 0.445312 -7.109375 0.75 -7.453125 C 1.050781 -7.796875 1.503906 -7.96875 2.109375 -7.96875 C 2.722656 -7.96875 3.179688 -7.796875 3.484375 -7.453125 C 3.785156 -7.109375 3.9375 -6.617188 3.9375 -5.984375 L 3.9375 -5.6875 L 2.765625 -5.6875 L 2.765625 -6.0625 C 2.765625 -6.34375 2.707031 -6.539062 2.59375 -6.65625 C 2.488281 -6.78125 2.34375 -6.84375 2.15625 -6.84375 C 1.957031 -6.84375 1.800781 -6.78125 1.6875 -6.65625 C 1.582031 -6.539062 1.53125 -6.34375 1.53125 -6.0625 C 1.53125 -5.789062 1.585938 -5.550781 1.703125 -5.34375 C 1.828125 -5.144531 1.976562 -4.953125 2.15625 -4.765625 C 2.34375 -4.578125 2.535156 -4.390625 2.734375 -4.203125 C 2.941406 -4.023438 3.132812 -3.828125 3.3125 -3.609375 C 3.5 -3.390625 3.648438 -3.140625 3.765625 -2.859375 C 3.890625 -2.585938 3.953125 -2.265625 3.953125 -1.890625 C 3.953125 -1.253906 3.796875 -0.765625 3.484375 -0.421875 C 3.171875 -0.078125 2.710938 0.09375 2.109375 0.09375 C 1.492188 0.09375 1.03125 -0.078125 0.71875 -0.421875 C 0.414062 -0.765625 0.265625 -1.253906 0.265625 -1.890625 L 0.265625 -2.4375 L 1.421875 -2.4375 L 1.421875 -1.8125 C 1.421875 -1.53125 1.476562 -1.332031 1.59375 -1.21875 C 1.71875 -1.101562 1.875 -1.046875 2.0625 -1.046875 C 2.257812 -1.046875 2.414062 -1.101562 2.53125 -1.21875 C 2.65625 -1.332031 2.71875 -1.53125 2.71875 -1.8125 C 2.71875 -2.082031 2.65625 -2.316406 2.53125 -2.515625 C 2.40625 -2.722656 2.253906 -2.921875 2.078125 -3.109375 C 1.898438 -3.296875 1.707031 -3.476562 1.5 -3.65625 C 1.289062 -3.84375 1.097656 -4.046875 0.921875 -4.265625 C 0.742188 -4.484375 0.59375 -4.726562 0.46875 -5 C 0.351562 -5.28125 0.296875 -5.609375 0.296875 -5.984375 Z M 0.296875 -5.984375 "/></g></g></g><g fill="#000000" fill-opacity="1"><g transform="translate(16.965484, 33.357001)"><g><path d="M 0.109375 -7.875 L 3.9375 -7.875 L 3.9375 -6.75 L 2.640625 -6.75 L 2.640625 0 L 1.40625 0 L 1.40625 -6.75 L 0.109375 -6.75 Z M 0.109375 -7.875 "/></g></g></g><g fill="#000000" fill-opacity="1"><g transform="translate(23.503287, 33.357001)"><g><path d="M 1.625 -7.875 L 1.625 -1.796875 C 1.625 -1.515625 1.679688 -1.316406 1.796875 -1.203125 C 1.921875 -1.085938 2.078125 -1.03125 2.265625 -1.03125 C 2.460938 -1.03125 2.617188 -1.085938 2.734375 -1.203125 C 2.847656 -1.316406 2.90625 -1.515625 2.90625 -1.796875 L 2.90625 -7.875 L 4.078125 -7.875 L 4.078125 -1.875 C 4.078125 -1.238281 3.921875 -0.75 3.609375 -0.40625 C 3.304688 -0.0703125 2.847656 0.09375 2.234375 0.09375 C 1.628906 0.09375 1.171875 -0.0703125 0.859375 -0.40625 C 0.546875 -0.75 0.390625 -1.238281 0.390625 -1.875 L 0.390625 -7.875 Z M 1.625 -7.875 "/></g></g></g><g fill="#000000" fill-opacity="1"><g transform="translate(30.468596, 33.357001)"><g><path d="M 0.453125 -7.875 L 2.40625 -7.875 C 3.03125 -7.875 3.492188 -7.707031 3.796875 -7.375 C 4.097656 -7.050781 4.25 -6.566406 4.25 -5.921875 L 4.25 -1.953125 C 4.25 -1.304688 4.097656 -0.816406 3.796875 -0.484375 C 3.492188 -0.160156 3.03125 0 2.40625 0 L 0.453125 0 Z M 1.6875 -6.75 L 1.6875 -1.125 L 2.390625 -1.125 C 2.578125 -1.125 2.726562 -1.179688 2.84375 -1.296875 C 2.957031 -1.410156 3.015625 -1.609375 3.015625 -1.890625 L 3.015625 -5.984375 C 3.015625 -6.265625 2.957031 -6.460938 2.84375 -6.578125 C 2.726562 -6.691406 2.578125 -6.75 2.390625 -6.75 Z M 1.6875 -6.75 "/></g></g></g><g fill="#000000" fill-opacity="1"><g transform="translate(37.5464, 33.357001)"><g><path d="M 4.453125 0 L 3.203125 0 L 3 -1.421875 L 1.46875 -1.421875 L 1.265625 0 L 0.125 0 L 1.390625 -7.875 L 3.1875 -7.875 Z M 1.625 -2.5 L 2.828125 -2.5 L 2.234375 -6.484375 Z M 1.625 -2.5 "/></g></g></g><g fill="#000000" fill-opacity="1"><g transform="translate(44.612955, 33.357001)"><g><path d="M 1.546875 -5.703125 L 1.546875 0 L 0.4375 0 L 0.4375 -7.875 L 1.984375 -7.875 L 3.265625 -3.15625 L 3.265625 -7.875 L 4.359375 -7.875 L 4.359375 0 L 3.09375 0 Z M 1.546875 -5.703125 "/></g></g></g><g fill="#000000" fill-opacity="1"><g transform="translate(51.904511, 33.357001)"><g><path d="M 0.109375 -7.875 L 3.9375 -7.875 L 3.9375 -6.75 L 2.640625 -6.75 L 2.640625 0 L 1.40625 0 L 1.40625 -6.75 L 0.109375 -6.75 Z M 0.109375 -7.875 "/></g></g></g><g fill="#000000" fill-opacity="1"><g transform="translate(58.442314, 33.357001)"><g><path d="M 1.6875 -4.5625 L 3.390625 -4.5625 L 3.390625 -3.4375 L 1.6875 -3.4375 L 1.6875 -1.125 L 3.828125 -1.125 L 3.828125 0 L 0.453125 0 L 0.453125 -7.875 L 3.828125 -7.875 L 3.828125 -6.75 L 1.6875 -6.75 Z M 1.6875 -4.5625 "/></g></g></g><g fill="#000000" fill-opacity="1"><g transform="translate(65.070114, 33.357001)"><g/></g></g><g fill="#000000" fill-opacity="1"><g transform="translate(69.301647, 33.357001)"><g><path d="M 0.453125 -7.875 L 2.40625 -7.875 C 3.03125 -7.875 3.492188 -7.707031 3.796875 -7.375 C 4.097656 -7.050781 4.25 -6.566406 4.25 -5.921875 L 4.25 -1.953125 C 4.25 -1.304688 4.097656 -0.816406 3.796875 -0.484375 C 3.492188 -0.160156 3.03125 0 2.40625 0 L 0.453125 0 Z M 1.6875 -6.75 L 1.6875 -1.125 L 2.390625 -1.125 C 2.578125 -1.125 2.726562 -1.179688 2.84375 -1.296875 C 2.957031 -1.410156 3.015625 -1.609375 3.015625 -1.890625 L 3.015625 -5.984375 C 3.015625 -6.265625 2.957031 -6.460938 2.84375 -6.578125 C 2.726562 -6.691406 2.578125 -6.75 2.390625 -6.75 Z M 1.6875 -6.75 "/></g></g></g><g fill="#000000" fill-opacity="1"><g transform="translate(76.379451, 33.357001)"><g><path d="M 1.6875 -4.5625 L 3.390625 -4.5625 L 3.390625 -3.4375 L 1.6875 -3.4375 L 1.6875 -1.125 L 3.828125 -1.125 L 3.828125 0 L 0.453125 0 L 0.453125 -7.875 L 3.828125 -7.875 L 3.828125 -6.75 L 1.6875 -6.75 Z M 1.6875 -4.5625 "/></g></g></g><g fill="#000000" fill-opacity="1"><g transform="translate(83.00725, 33.357001)"><g/></g></g><g fill="#000000" fill-opacity="1"><g transform="translate(87.238783, 33.357001)"><g><path d="M 2.265625 -7.875 C 2.890625 -7.875 3.351562 -7.707031 3.65625 -7.375 C 3.96875 -7.050781 4.125 -6.566406 4.125 -5.921875 L 4.125 -4.90625 C 4.125 -4.269531 3.96875 -3.785156 3.65625 -3.453125 C 3.351562 -3.117188 2.890625 -2.953125 2.265625 -2.953125 L 1.6875 -2.953125 L 1.6875 0 L 0.453125 0 L 0.453125 -7.875 Z M 1.6875 -6.75 L 1.6875 -4.078125 L 2.265625 -4.078125 C 2.460938 -4.078125 2.613281 -4.128906 2.71875 -4.234375 C 2.820312 -4.347656 2.875 -4.546875 2.875 -4.828125 L 2.875 -6 C 2.875 -6.289062 2.820312 -6.488281 2.71875 -6.59375 C 2.613281 -6.695312 2.460938 -6.75 2.265625 -6.75 Z M 1.6875 -6.75 "/></g></g></g><g fill="#000000" fill-opacity="1"><g transform="translate(93.96784, 33.357001)"><g><path d="M 3.03125 0 C 3.019531 -0.0507812 3.003906 -0.0976562 2.984375 -0.140625 C 2.972656 -0.191406 2.960938 -0.25 2.953125 -0.3125 C 2.941406 -0.382812 2.929688 -0.472656 2.921875 -0.578125 C 2.921875 -0.679688 2.921875 -0.8125 2.921875 -0.96875 L 2.921875 -2.203125 C 2.921875 -2.566406 2.859375 -2.820312 2.734375 -2.96875 C 2.609375 -3.125 2.398438 -3.203125 2.109375 -3.203125 L 1.6875 -3.203125 L 1.6875 0 L 0.453125 0 L 0.453125 -7.875 L 2.3125 -7.875 C 2.957031 -7.875 3.425781 -7.722656 3.71875 -7.421875 C 4.007812 -7.117188 4.15625 -6.664062 4.15625 -6.0625 L 4.15625 -5.4375 C 4.15625 -4.632812 3.882812 -4.101562 3.34375 -3.84375 C 3.65625 -3.71875 3.867188 -3.507812 3.984375 -3.21875 C 4.097656 -2.9375 4.15625 -2.585938 4.15625 -2.171875 L 4.15625 -0.953125 C 4.15625 -0.753906 4.160156 -0.582031 4.171875 -0.4375 C 4.191406 -0.289062 4.234375 -0.144531 4.296875 0 Z M 1.6875 -6.75 L 1.6875 -4.328125 L 2.171875 -4.328125 C 2.398438 -4.328125 2.578125 -4.382812 2.703125 -4.5 C 2.835938 -4.625 2.90625 -4.84375 2.90625 -5.15625 L 2.90625 -5.9375 C 2.90625 -6.226562 2.851562 -6.4375 2.75 -6.5625 C 2.65625 -6.6875 2.5 -6.75 2.28125 -6.75 Z M 1.6875 -6.75 "/></g></g></g><g fill="#000000" fill-opacity="1"><g transform="translate(100.978146, 33.357001)"><g><path d="M 1.59375 -1.8125 C 1.59375 -1.53125 1.648438 -1.328125 1.765625 -1.203125 C 1.878906 -1.085938 2.035156 -1.03125 2.234375 -1.03125 C 2.421875 -1.03125 2.570312 -1.085938 2.6875 -1.203125 C 2.8125 -1.328125 2.875 -1.53125 2.875 -1.8125 L 2.875 -6.0625 C 2.875 -6.34375 2.8125 -6.539062 2.6875 -6.65625 C 2.570312 -6.78125 2.421875 -6.84375 2.234375 -6.84375 C 2.035156 -6.84375 1.878906 -6.78125 1.765625 -6.65625 C 1.648438 -6.539062 1.59375 -6.34375 1.59375 -6.0625 Z M 0.34375 -5.984375 C 0.34375 -6.617188 0.503906 -7.109375 0.828125 -7.453125 C 1.148438 -7.796875 1.617188 -7.96875 2.234375 -7.96875 C 2.835938 -7.96875 3.300781 -7.796875 3.625 -7.453125 C 3.945312 -7.109375 4.109375 -6.617188 4.109375 -5.984375 L 4.109375 -1.890625 C 4.109375 -1.253906 3.945312 -0.765625 3.625 -0.421875 C 3.300781 -0.078125 2.835938 0.09375 2.234375 0.09375 C 1.617188 0.09375 1.148438 -0.078125 0.828125 -0.421875 C 0.503906 -0.765625 0.34375 -1.253906 0.34375 -1.890625 Z M 0.34375 -5.984375 "/></g></g></g><g fill="#000000" fill-opacity="1"><g transform="translate(107.920956, 33.357001)"><g><path d="M 2.3125 -4.390625 L 4.03125 -4.390625 L 4.03125 -1.890625 C 4.03125 -1.253906 3.875 -0.765625 3.5625 -0.421875 C 3.257812 -0.078125 2.800781 0.09375 2.1875 0.09375 C 1.582031 0.09375 1.125 -0.078125 0.8125 -0.421875 C 0.5 -0.765625 0.34375 -1.253906 0.34375 -1.890625 L 0.34375 -5.984375 C 0.34375 -6.617188 0.5 -7.109375 0.8125 -7.453125 C 1.125 -7.796875 1.582031 -7.96875 2.1875 -7.96875 C 2.800781 -7.96875 3.257812 -7.796875 3.5625 -7.453125 C 3.875 -7.109375 4.03125 -6.617188 4.03125 -5.984375 L 4.03125 -5.21875 L 2.875 -5.21875 L 2.875 -6.0625 C 2.875 -6.34375 2.8125 -6.539062 2.6875 -6.65625 C 2.570312 -6.78125 2.421875 -6.84375 2.234375 -6.84375 C 2.035156 -6.84375 1.878906 -6.78125 1.765625 -6.65625 C 1.648438 -6.539062 1.59375 -6.34375 1.59375 -6.0625 L 1.59375 -1.8125 C 1.59375 -1.53125 1.648438 -1.332031 1.765625 -1.21875 C 1.878906 -1.101562 2.035156 -1.046875 2.234375 -1.046875 C 2.421875 -1.046875 2.570312 -1.101562 2.6875 -1.21875 C 2.8125 -1.332031 2.875 -1.53125 2.875 -1.8125 L 2.875 -3.265625 L 2.3125 -3.265625 Z M 2.3125 -4.390625 "/></g></g></g><g fill="#000000" fill-opacity="1"><g transform="translate(114.796257, 33.357001)"><g><path d="M 3.03125 0 C 3.019531 -0.0507812 3.003906 -0.0976562 2.984375 -0.140625 C 2.972656 -0.191406 2.960938 -0.25 2.953125 -0.3125 C 2.941406 -0.382812 2.929688 -0.472656 2.921875 -0.578125 C 2.921875 -0.679688 2.921875 -0.8125 2.921875 -0.96875 L 2.921875 -2.203125 C 2.921875 -2.566406 2.859375 -2.820312 2.734375 -2.96875 C 2.609375 -3.125 2.398438 -3.203125 2.109375 -3.203125 L 1.6875 -3.203125 L 1.6875 0 L 0.453125 0 L 0.453125 -7.875 L 2.3125 -7.875 C 2.957031 -7.875 3.425781 -7.722656 3.71875 -7.421875 C 4.007812 -7.117188 4.15625 -6.664062 4.15625 -6.0625 L 4.15625 -5.4375 C 4.15625 -4.632812 3.882812 -4.101562 3.34375 -3.84375 C 3.65625 -3.71875 3.867188 -3.507812 3.984375 -3.21875 C 4.097656 -2.9375 4.15625 -2.585938 4.15625 -2.171875 L 4.15625 -0.953125 C 4.15625 -0.753906 4.160156 -0.582031 4.171875 -0.4375 C 4.191406 -0.289062 4.234375 -0.144531 4.296875 0 Z M 1.6875 -6.75 L 1.6875 -4.328125 L 2.171875 -4.328125 C 2.398438 -4.328125 2.578125 -4.382812 2.703125 -4.5 C 2.835938 -4.625 2.90625 -4.84375 2.90625 -5.15625 L 2.90625 -5.9375 C 2.90625 -6.226562 2.851562 -6.4375 2.75 -6.5625 C 2.65625 -6.6875 2.5 -6.75 2.28125 -6.75 Z M 1.6875 -6.75 "/></g></g></g><g fill="#000000" fill-opacity="1"><g transform="translate(121.806563, 33.357001)"><g><path d="M 4.453125 0 L 3.203125 0 L 3 -1.421875 L 1.46875 -1.421875 L 1.265625 0 L 0.125 0 L 1.390625 -7.875 L 3.1875 -7.875 Z M 1.625 -2.5 L 2.828125 -2.5 L 2.234375 -6.484375 Z M 1.625 -2.5 "/></g></g></g><g fill="#000000" fill-opacity="1"><g transform="translate(128.873118, 33.357001)"><g><path d="M 3.078125 -2.28125 L 3.921875 -7.875 L 5.640625 -7.875 L 5.640625 0 L 4.46875 0 L 4.46875 -5.640625 L 3.609375 0 L 2.4375 0 L 1.515625 -5.5625 L 1.515625 0 L 0.4375 0 L 0.4375 -7.875 L 2.15625 -7.875 Z M 3.078125 -2.28125 "/></g></g></g><g fill="#000000" fill-opacity="1"><g transform="translate(137.447179, 33.357001)"><g><path d="M 4.453125 0 L 3.203125 0 L 3 -1.421875 L 1.46875 -1.421875 L 1.265625 0 L 0.125 0 L 1.390625 -7.875 L 3.1875 -7.875 Z M 1.625 -2.5 L 2.828125 -2.5 L 2.234375 -6.484375 Z M 1.625 -2.5 "/></g></g></g><g fill="#000000" fill-opacity="1"><g transform="translate(144.513734, 33.357001)"><g><path d="M 1.171875 1.109375 L 1.890625 1.109375 L 1.890625 1.21875 C 1.890625 1.300781 1.910156 1.351562 1.953125 1.375 C 2.003906 1.40625 2.0625 1.421875 2.125 1.421875 C 2.320312 1.421875 2.421875 1.328125 2.421875 1.140625 C 2.421875 0.929688 2.285156 0.828125 2.015625 0.828125 L 1.890625 0.828125 L 1.890625 0.0625 C 1.367188 0.0078125 0.976562 -0.179688 0.71875 -0.515625 C 0.46875 -0.847656 0.34375 -1.304688 0.34375 -1.890625 L 0.34375 -5.984375 C 0.34375 -6.617188 0.5 -7.109375 0.8125 -7.453125 C 1.125 -7.796875 1.582031 -7.96875 2.1875 -7.96875 C 2.800781 -7.96875 3.257812 -7.796875 3.5625 -7.453125 C 3.875 -7.109375 4.03125 -6.617188 4.03125 -5.984375 L 4.03125 -5.21875 L 2.875 -5.21875 L 2.875 -6.0625 C 2.875 -6.34375 2.8125 -6.539062 2.6875 -6.65625 C 2.570312 -6.78125 2.421875 -6.84375 2.234375 -6.84375 C 2.035156 -6.84375 1.878906 -6.78125 1.765625 -6.65625 C 1.648438 -6.539062 1.59375 -6.34375 1.59375 -6.0625 L 1.59375 -1.8125 C 1.59375 -1.53125 1.648438 -1.332031 1.765625 -1.21875 C 1.878906 -1.101562 2.035156 -1.046875 2.234375 -1.046875 C 2.421875 -1.046875 2.570312 -1.101562 2.6875 -1.21875 C 2.8125 -1.332031 2.875 -1.53125 2.875 -1.8125 L 2.875 -2.9375 L 4.03125 -2.9375 L 4.03125 -1.890625 C 4.03125 -1.304688 3.894531 -0.84375 3.625 -0.5 C 3.363281 -0.15625 2.972656 0.0351562 2.453125 0.078125 L 2.453125 0.4375 C 2.671875 0.4375 2.84375 0.492188 2.96875 0.609375 C 3.09375 0.722656 3.15625 0.878906 3.15625 1.078125 C 3.15625 1.421875 3.050781 1.660156 2.84375 1.796875 C 2.644531 1.929688 2.410156 2 2.140625 2 C 1.878906 2 1.648438 1.9375 1.453125 1.8125 C 1.265625 1.6875 1.171875 1.488281 1.171875 1.21875 Z M 1.171875 1.109375 "/></g></g></g><g fill="#000000" fill-opacity="1"><g transform="translate(151.344037, 33.357001)"><g><path d="M 4.453125 0 L 3.203125 0 L 3 -1.421875 L 1.46875 -1.421875 L 1.265625 0 L 0.125 0 L 1.390625 -7.875 L 3.1875 -7.875 Z M 1.625 -2.5 L 2.828125 -2.5 L 2.234375 -6.484375 Z M 3.953125 -9.0625 C 3.765625 -8.726562 3.585938 -8.507812 3.421875 -8.40625 C 3.265625 -8.300781 3.085938 -8.25 2.890625 -8.25 C 2.765625 -8.25 2.648438 -8.265625 2.546875 -8.296875 C 2.441406 -8.328125 2.34375 -8.363281 2.25 -8.40625 C 2.15625 -8.445312 2.066406 -8.484375 1.984375 -8.515625 C 1.910156 -8.546875 1.828125 -8.5625 1.734375 -8.5625 C 1.628906 -8.5625 1.535156 -8.535156 1.453125 -8.484375 C 1.378906 -8.441406 1.304688 -8.34375 1.234375 -8.1875 L 0.609375 -8.65625 C 0.796875 -8.988281 0.96875 -9.207031 1.125 -9.3125 C 1.289062 -9.414062 1.472656 -9.46875 1.671875 -9.46875 C 1.804688 -9.46875 1.925781 -9.453125 2.03125 -9.421875 C 2.132812 -9.390625 2.226562 -9.351562 2.3125 -9.3125 C 2.40625 -9.269531 2.492188 -9.234375 2.578125 -9.203125 C 2.660156 -9.171875 2.742188 -9.15625 2.828125 -9.15625 C 2.941406 -9.15625 3.035156 -9.175781 3.109375 -9.21875 C 3.179688 -9.269531 3.253906 -9.375 3.328125 -9.53125 Z M 3.953125 -9.0625 "/></g></g></g><g fill="#000000" fill-opacity="1"><g transform="translate(158.410591, 33.357001)"><g><path d="M 1.59375 -1.8125 C 1.59375 -1.53125 1.648438 -1.328125 1.765625 -1.203125 C 1.878906 -1.085938 2.035156 -1.03125 2.234375 -1.03125 C 2.421875 -1.03125 2.570312 -1.085938 2.6875 -1.203125 C 2.8125 -1.328125 2.875 -1.53125 2.875 -1.8125 L 2.875 -6.0625 C 2.875 -6.34375 2.8125 -6.539062 2.6875 -6.65625 C 2.570312 -6.78125 2.421875 -6.84375 2.234375 -6.84375 C 2.035156 -6.84375 1.878906 -6.78125 1.765625 -6.65625 C 1.648438 -6.539062 1.59375 -6.34375 1.59375 -6.0625 Z M 0.34375 -5.984375 C 0.34375 -6.617188 0.503906 -7.109375 0.828125 -7.453125 C 1.148438 -7.796875 1.617188 -7.96875 2.234375 -7.96875 C 2.835938 -7.96875 3.300781 -7.796875 3.625 -7.453125 C 3.945312 -7.109375 4.109375 -6.617188 4.109375 -5.984375 L 4.109375 -1.890625 C 4.109375 -1.253906 3.945312 -0.765625 3.625 -0.421875 C 3.300781 -0.078125 2.835938 0.09375 2.234375 0.09375 C 1.617188 0.09375 1.148438 -0.078125 0.828125 -0.421875 C 0.503906 -0.765625 0.34375 -1.253906 0.34375 -1.890625 Z M 0.34375 -5.984375 "/></g></g></g><g fill="#000000" fill-opacity="1"><g transform="translate(165.3534, 33.357001)"><g/></g></g><g fill="#000000" fill-opacity="1"><g transform="translate(169.584933, 33.357001)"><g><path d="M 1.6875 -4.375 L 3.28125 -4.375 L 3.28125 -3.25 L 1.6875 -3.25 L 1.6875 0 L 0.453125 0 L 0.453125 -7.875 L 3.71875 -7.875 L 3.71875 -6.75 L 1.6875 -6.75 Z M 1.6875 -4.375 "/></g></g></g><g fill="#000000" fill-opacity="1"><g transform="translate(175.942732, 33.357001)"><g><path d="M 1.625 -7.875 L 1.625 -1.796875 C 1.625 -1.515625 1.679688 -1.316406 1.796875 -1.203125 C 1.921875 -1.085938 2.078125 -1.03125 2.265625 -1.03125 C 2.460938 -1.03125 2.617188 -1.085938 2.734375 -1.203125 C 2.847656 -1.316406 2.90625 -1.515625 2.90625 -1.796875 L 2.90625 -7.875 L 4.078125 -7.875 L 4.078125 -1.875 C 4.078125 -1.238281 3.921875 -0.75 3.609375 -0.40625 C 3.304688 -0.0703125 2.847656 0.09375 2.234375 0.09375 C 1.628906 0.09375 1.171875 -0.0703125 0.859375 -0.40625 C 0.546875 -0.75 0.390625 -1.238281 0.390625 -1.875 L 0.390625 -7.875 Z M 1.625 -7.875 "/></g></g></g><g fill="#000000" fill-opacity="1"><g transform="translate(182.908041, 33.357001)"><g><path d="M 0.109375 -7.875 L 3.9375 -7.875 L 3.9375 -6.75 L 2.640625 -6.75 L 2.640625 0 L 1.40625 0 L 1.40625 -6.75 L 0.109375 -6.75 Z M 0.109375 -7.875 "/></g></g></g><g fill="#000000" fill-opacity="1"><g transform="translate(189.445844, 33.357001)"><g><path d="M 1.625 -7.875 L 1.625 -1.796875 C 1.625 -1.515625 1.679688 -1.316406 1.796875 -1.203125 C 1.921875 -1.085938 2.078125 -1.03125 2.265625 -1.03125 C 2.460938 -1.03125 2.617188 -1.085938 2.734375 -1.203125 C 2.847656 -1.316406 2.90625 -1.515625 2.90625 -1.796875 L 2.90625 -7.875 L 4.078125 -7.875 L 4.078125 -1.875 C 4.078125 -1.238281 3.921875 -0.75 3.609375 -0.40625 C 3.304688 -0.0703125 2.847656 0.09375 2.234375 0.09375 C 1.628906 0.09375 1.171875 -0.0703125 0.859375 -0.40625 C 0.546875 -0.75 0.390625 -1.238281 0.390625 -1.875 L 0.390625 -7.875 Z M 1.625 -7.875 "/></g></g></g><g fill="#000000" fill-opacity="1"><g transform="translate(196.411152, 33.357001)"><g><path d="M 3.03125 0 C 3.019531 -0.0507812 3.003906 -0.0976562 2.984375 -0.140625 C 2.972656 -0.191406 2.960938 -0.25 2.953125 -0.3125 C 2.941406 -0.382812 2.929688 -0.472656 2.921875 -0.578125 C 2.921875 -0.679688 2.921875 -0.8125 2.921875 -0.96875 L 2.921875 -2.203125 C 2.921875 -2.566406 2.859375 -2.820312 2.734375 -2.96875 C 2.609375 -3.125 2.398438 -3.203125 2.109375 -3.203125 L 1.6875 -3.203125 L 1.6875 0 L 0.453125 0 L 0.453125 -7.875 L 2.3125 -7.875 C 2.957031 -7.875 3.425781 -7.722656 3.71875 -7.421875 C 4.007812 -7.117188 4.15625 -6.664062 4.15625 -6.0625 L 4.15625 -5.4375 C 4.15625 -4.632812 3.882812 -4.101562 3.34375 -3.84375 C 3.65625 -3.71875 3.867188 -3.507812 3.984375 -3.21875 C 4.097656 -2.9375 4.15625 -2.585938 4.15625 -2.171875 L 4.15625 -0.953125 C 4.15625 -0.753906 4.160156 -0.582031 4.171875 -0.4375 C 4.191406 -0.289062 4.234375 -0.144531 4.296875 0 Z M 1.6875 -6.75 L 1.6875 -4.328125 L 2.171875 -4.328125 C 2.398438 -4.328125 2.578125 -4.382812 2.703125 -4.5 C 2.835938 -4.625 2.90625 -4.84375 2.90625 -5.15625 L 2.90625 -5.9375 C 2.90625 -6.226562 2.851562 -6.4375 2.75 -6.5625 C 2.65625 -6.6875 2.5 -6.75 2.28125 -6.75 Z M 1.6875 -6.75 "/></g></g></g><g fill="#000000" fill-opacity="1"><g transform="translate(203.421459, 33.357001)"><g><path d="M 1.59375 -1.8125 C 1.59375 -1.53125 1.648438 -1.328125 1.765625 -1.203125 C 1.878906 -1.085938 2.035156 -1.03125 2.234375 -1.03125 C 2.421875 -1.03125 2.570312 -1.085938 2.6875 -1.203125 C 2.8125 -1.328125 2.875 -1.53125 2.875 -1.8125 L 2.875 -6.0625 C 2.875 -6.34375 2.8125 -6.539062 2.6875 -6.65625 C 2.570312 -6.78125 2.421875 -6.84375 2.234375 -6.84375 C 2.035156 -6.84375 1.878906 -6.78125 1.765625 -6.65625 C 1.648438 -6.539062 1.59375 -6.34375 1.59375 -6.0625 Z M 0.34375 -5.984375 C 0.34375 -6.617188 0.503906 -7.109375 0.828125 -7.453125 C 1.148438 -7.796875 1.617188 -7.96875 2.234375 -7.96875 C 2.835938 -7.96875 3.300781 -7.796875 3.625 -7.453125 C 3.945312 -7.109375 4.109375 -6.617188 4.109375 -5.984375 L 4.109375 -1.890625 C 4.109375 -1.253906 3.945312 -0.765625 3.625 -0.421875 C 3.300781 -0.078125 2.835938 0.09375 2.234375 0.09375 C 1.617188 0.09375 1.148438 -0.078125 0.828125 -0.421875 C 0.503906 -0.765625 0.34375 -1.253906 0.34375 -1.890625 Z M 0.34375 -5.984375 "/></g></g></g><g fill="#000000" fill-opacity="1"><g transform="translate(210.364269, 33.357001)"><g/></g></g><g fill="#000000" fill-opacity="1"><g transform="translate(214.59579, 33.357001)"><g><path d="M 0.453125 -7.875 L 2.40625 -7.875 C 3.03125 -7.875 3.492188 -7.707031 3.796875 -7.375 C 4.097656 -7.050781 4.25 -6.566406 4.25 -5.921875 L 4.25 -1.953125 C 4.25 -1.304688 4.097656 -0.816406 3.796875 -0.484375 C 3.492188 -0.160156 3.03125 0 2.40625 0 L 0.453125 0 Z M 1.6875 -6.75 L 1.6875 -1.125 L 2.390625 -1.125 C 2.578125 -1.125 2.726562 -1.179688 2.84375 -1.296875 C 2.957031 -1.410156 3.015625 -1.609375 3.015625 -1.890625 L 3.015625 -5.984375 C 3.015625 -6.265625 2.957031 -6.460938 2.84375 -6.578125 C 2.726562 -6.691406 2.578125 -6.75 2.390625 -6.75 Z M 1.6875 -6.75 "/></g></g></g><g fill="#000000" fill-opacity="1"><g transform="translate(221.673594, 33.357001)"><g><path d="M 1.6875 -4.5625 L 3.390625 -4.5625 L 3.390625 -3.4375 L 1.6875 -3.4375 L 1.6875 -1.125 L 3.828125 -1.125 L 3.828125 0 L 0.453125 0 L 0.453125 -7.875 L 3.828125 -7.875 L 3.828125 -6.75 L 1.6875 -6.75 Z M 1.6875 -4.5625 "/></g></g></g><g fill="#000000" fill-opacity="1"><g transform="translate(228.301416, 33.357001)"><g><path d="M 2.3125 -1.453125 L 3.265625 -7.875 L 4.40625 -7.875 L 3.1875 0 L 1.34375 0 L 0.125 -7.875 L 1.375 -7.875 Z M 2.3125 -1.453125 "/></g></g></g><g fill="#000000" fill-opacity="1"><g transform="translate(235.3117, 33.357001)"><g/></g></g><g fill="#000000" fill-opacity="1"><g transform="translate(239.543244, 33.357001)"><g><path d="M 1.6875 -4.375 L 3.28125 -4.375 L 3.28125 -3.25 L 1.6875 -3.25 L 1.6875 0 L 0.453125 0 L 0.453125 -7.875 L 3.71875 -7.875 L 3.71875 -6.75 L 1.6875 -6.75 Z M 1.6875 -4.375 "/></g></g></g><g fill="#000000" fill-opacity="1"><g transform="translate(245.901055, 33.357001)"><g><path d="M 1.625 -7.875 L 1.625 -1.796875 C 1.625 -1.515625 1.679688 -1.316406 1.796875 -1.203125 C 1.921875 -1.085938 2.078125 -1.03125 2.265625 -1.03125 C 2.460938 -1.03125 2.617188 -1.085938 2.734375 -1.203125 C 2.847656 -1.316406 2.90625 -1.515625 2.90625 -1.796875 L 2.90625 -7.875 L 4.078125 -7.875 L 4.078125 -1.875 C 4.078125 -1.238281 3.921875 -0.75 3.609375 -0.40625 C 3.304688 -0.0703125 2.847656 0.09375 2.234375 0.09375 C 1.628906 0.09375 1.171875 -0.0703125 0.859375 -0.40625 C 0.546875 -0.75 0.390625 -1.238281 0.390625 -1.875 L 0.390625 -7.875 Z M 1.625 -7.875 "/></g></g></g><g fill="#000000" fill-opacity="1"><g transform="translate(252.86634, 33.357001)"><g><path d="M 0.453125 -7.875 L 1.6875 -7.875 L 1.6875 -1.125 L 3.71875 -1.125 L 3.71875 0 L 0.453125 0 Z M 0.453125 -7.875 "/></g></g></g><g fill="#000000" fill-opacity="1"><g transform="translate(259.190391, 33.357001)"><g><path d="M 0.453125 -7.875 L 1.6875 -7.875 L 1.6875 -1.125 L 3.71875 -1.125 L 3.71875 0 L 0.453125 0 Z M 0.453125 -7.875 "/></g></g></g><g fill="#000000" fill-opacity="1"><g transform="translate(265.514441, 33.357001)"><g><path d="M 0.296875 -5.984375 C 0.296875 -6.617188 0.445312 -7.109375 0.75 -7.453125 C 1.050781 -7.796875 1.503906 -7.96875 2.109375 -7.96875 C 2.722656 -7.96875 3.179688 -7.796875 3.484375 -7.453125 C 3.785156 -7.109375 3.9375 -6.617188 3.9375 -5.984375 L 3.9375 -5.6875 L 2.765625 -5.6875 L 2.765625 -6.0625 C 2.765625 -6.34375 2.707031 -6.539062 2.59375 -6.65625 C 2.488281 -6.78125 2.34375 -6.84375 2.15625 -6.84375 C 1.957031 -6.84375 1.800781 -6.78125 1.6875 -6.65625 C 1.582031 -6.539062 1.53125 -6.34375 1.53125 -6.0625 C 1.53125 -5.789062 1.585938 -5.550781 1.703125 -5.34375 C 1.828125 -5.144531 1.976562 -4.953125 2.15625 -4.765625 C 2.34375 -4.578125 2.535156 -4.390625 2.734375 -4.203125 C 2.941406 -4.023438 3.132812 -3.828125 3.3125 -3.609375 C 3.5 -3.390625 3.648438 -3.140625 3.765625 -2.859375 C 3.890625 -2.585938 3.953125 -2.265625 3.953125 -1.890625 C 3.953125 -1.253906 3.796875 -0.765625 3.484375 -0.421875 C 3.171875 -0.078125 2.710938 0.09375 2.109375 0.09375 C 1.492188 0.09375 1.03125 -0.078125 0.71875 -0.421875 C 0.414062 -0.765625 0.265625 -1.253906 0.265625 -1.890625 L 0.265625 -2.4375 L 1.421875 -2.4375 L 1.421875 -1.8125 C 1.421875 -1.53125 1.476562 -1.332031 1.59375 -1.21875 C 1.71875 -1.101562 1.875 -1.046875 2.0625 -1.046875 C 2.257812 -1.046875 2.414062 -1.101562 2.53125 -1.21875 C 2.65625 -1.332031 2.71875 -1.53125 2.71875 -1.8125 C 2.71875 -2.082031 2.65625 -2.316406 2.53125 -2.515625 C 2.40625 -2.722656 2.253906 -2.921875 2.078125 -3.109375 C 1.898438 -3.296875 1.707031 -3.476562 1.5 -3.65625 C 1.289062 -3.84375 1.097656 -4.046875 0.921875 -4.265625 C 0.742188 -4.484375 0.59375 -4.726562 0.46875 -5 C 0.351562 -5.28125 0.296875 -5.609375 0.296875 -5.984375 Z M 0.296875 -5.984375 "/></g></g></g><g fill="#000000" fill-opacity="1"><g transform="translate(272.209761, 33.357001)"><g><path d="M 0.109375 -7.875 L 3.9375 -7.875 L 3.9375 -6.75 L 2.640625 -6.75 L 2.640625 0 L 1.40625 0 L 1.40625 -6.75 L 0.109375 -6.75 Z M 0.109375 -7.875 "/></g></g></g><g fill="#000000" fill-opacity="1"><g transform="translate(278.747564, 33.357001)"><g><path d="M 4.453125 0 L 3.203125 0 L 3 -1.421875 L 1.46875 -1.421875 L 1.265625 0 L 0.125 0 L 1.390625 -7.875 L 3.1875 -7.875 Z M 1.625 -2.5 L 2.828125 -2.5 L 2.234375 -6.484375 Z M 1.625 -2.5 "/></g></g></g><g fill="#000000" fill-opacity="1"><g transform="translate(285.814107, 33.357001)"><g><path d="M 4.03125 -2.9375 L 4.03125 -1.890625 C 4.03125 -1.253906 3.875 -0.765625 3.5625 -0.421875 C 3.257812 -0.078125 2.800781 0.09375 2.1875 0.09375 C 1.582031 0.09375 1.125 -0.078125 0.8125 -0.421875 C 0.5 -0.765625 0.34375 -1.253906 0.34375 -1.890625 L 0.34375 -5.984375 C 0.34375 -6.617188 0.5 -7.109375 0.8125 -7.453125 C 1.125 -7.796875 1.582031 -7.96875 2.1875 -7.96875 C 2.800781 -7.96875 3.257812 -7.796875 3.5625 -7.453125 C 3.875 -7.109375 4.03125 -6.617188 4.03125 -5.984375 L 4.03125 -5.21875 L 2.875 -5.21875 L 2.875 -6.0625 C 2.875 -6.34375 2.8125 -6.539062 2.6875 -6.65625 C 2.570312 -6.78125 2.421875 -6.84375 2.234375 -6.84375 C 2.035156 -6.84375 1.878906 -6.78125 1.765625 -6.65625 C 1.648438 -6.539062 1.59375 -6.34375 1.59375 -6.0625 L 1.59375 -1.8125 C 1.59375 -1.53125 1.648438 -1.332031 1.765625 -1.21875 C 1.878906 -1.101562 2.035156 -1.046875 2.234375 -1.046875 C 2.421875 -1.046875 2.570312 -1.101562 2.6875 -1.21875 C 2.8125 -1.332031 2.875 -1.53125 2.875 -1.8125 L 2.875 -2.9375 Z M 4.03125 -2.9375 "/></g></g></g><g fill="#000000" fill-opacity="1"><g transform="translate(292.644421, 33.357001)"><g><path d="M 2.0625 -3.140625 L 1.6875 -2.421875 L 1.6875 0 L 0.453125 0 L 0.453125 -7.875 L 1.6875 -7.875 L 1.6875 -4.4375 L 3.328125 -7.875 L 4.546875 -7.875 L 2.828125 -4.359375 L 4.546875 0 L 3.28125 0 Z M 2.0625 -3.140625 "/></g></g></g></g></g></g></g></g></g></mask><clipPath id="612455b011"><path d="M 0 2.605469 L 300 2.605469 L 300 52 L 0 52 Z M 0 2.605469 " clip-rule="nonzero"/></clipPath><clipPath id="2664622f2d"><rect x="0" width="300" y="0" height="52"/></clipPath><clipPath id="a2786aa074"><rect x="0" width="300" y="0" height="52"/></clipPath></defs><g transform="matrix(1, 0, 0, 1, 0, -0.000000000000001893)"><g clip-path="url(#e67be3a278)"><g transform="matrix(1, 0, 0, 1, 0, -0.000000000000001893)"><g clip-path="url(#054e130156)"><g mask="url(#fd0f8a95c0)"><g transform="matrix(1, 0, 0, 1, 0, -0.000000000000001893)"><g clip-path="url(#c41cb536cd)"><g clip-path="url(#a7e17952ad)"><rect x="-161.04" fill="url(#630b287df9)" width="622.08" height="155.519994" y="-40.259998"/></g></g></g></g></g></g></g></g><g clip-path="url(#0ec99d2ac7)"><g transform="matrix(1, 0, 0, 1, 0, 23)"><g clip-path="url(#a2786aa074)"><g clip-path="url(#d18d2b7e71)"><g mask="url(#2d768e8cff)"><g transform="matrix(1, 0, 0, 1, 0, -0.000000000000003553)"><g clip-path="url(#2664622f2d)"><g clip-path="url(#612455b011)"><path fill="url(#8819fed3fd)" d="M 0 2.605469 L 0 52 L 300 52 L 300 2.605469 Z M 0 2.605469 " fill-rule="nonzero"/></g></g></g></g></g></g></g></g></svg>